<?xml version="1.0" standalone="no"?>
<!DOCTYPE svg PUBLIC "-//W3C//DTD SVG 20010904//EN"
 "http://www.w3.org/TR/2001/REC-SVG-20010904/DTD/svg10.dtd">
<svg version="1.0" xmlns="http://www.w3.org/2000/svg"
 width="700.000000pt" height="700.000000pt" viewBox="0 0 700.000000 700.000000"
 preserveAspectRatio="xMidYMid meet">
<metadata>
Created by potrace 1.14, written by Peter Selinger 2001-2017
</metadata>
<g transform="translate(0.000000,700.000000) scale(0.100000,-0.100000)"
fill="#000000" stroke="none">
<path d="M2166 6411 c-3 -5 -65 -278 -136 -608 -72 -329 -133 -608 -137 -620
l-5 -23 -559 0 -559 0 0 -470 0 -470 455 0 c250 0 455 -3 455 -7 0 -5 -70
-333 -157 -730 l-157 -723 -538 0 -538 0 0 -465 0 -465 435 0 c342 0 435 -3
435 -12 -1 -7 -60 -285 -133 -618 l-133 -605 161 -6 c316 -12 782 -10 788 4 2
6 64 288 138 624 l133 613 1113 0 c612 0 1113 -2 1113 -4 0 -5 -258 -1191
-267 -1224 l-5 -22 477 2 478 3 136 622 135 623 468 0 468 0 0 470 0 470 -366
0 -366 0 8 33 c4 17 75 345 159 727 l152 695 446 3 447 2 0 470 0 470 -343 2
-343 3 132 605 c73 333 133 613 133 623 1 16 -28 17 -473 17 l-474 0 -5 -22
c-3 -13 -62 -286 -132 -608 -69 -322 -130 -595 -135 -607 l-10 -23 -1110 0
c-1054 0 -1111 1 -1106 18 10 34 266 1218 266 1230 0 15 -935 18 -944 3z m922
-2515 c239 -174 442 -321 452 -326 10 -6 31 -10 47 -10 17 0 277 124 642 305
338 168 616 304 618 302 3 -3 -296 -1390 -301 -1393 0 -1 -502 -4 -1115 -7
l-1113 -7 4 23 c72 354 316 1436 323 1433 6 -2 205 -146 443 -320z m1441 319
c-13 -12 -844 -265 -872 -265 -27 0 -659 249 -676 266 -2 2 346 4 774 4 428 0
776 -2 774 -5z"/>
</g>
</svg>
