<svg viewBox="0 0 29 28" fill="none" xmlns="http://www.w3.org/2000/svg">
<path d="M12.6655 23.2416L16.8217 21.4774C16.9773 22.5043 16.4275 23.5456 15.4273 23.9701C14.4271 24.3947 13.2962 24.0669 12.6655 23.2416ZM19.0036 2.43933C21.437 3.7688 23.2637 5.47577 24.4657 7.5576C25.6676 9.63942 26.2325 12.0749 26.1672 14.847C26.1558 15.3301 25.755 15.7125 25.2718 15.7011C24.7887 15.6897 24.4063 15.2889 24.4177 14.8058C24.4757 12.3425 23.9843 10.2238 22.9501 8.4326C21.916 6.64136 20.3268 5.15641 18.1646 3.97507C17.7405 3.74337 17.5846 3.21175 17.8162 2.78767C18.0479 2.36359 18.5796 2.20763 19.0036 2.43933ZM8.32883 7.5978C11.6675 6.11131 15.567 7.51687 17.1949 10.8009L17.3096 11.0452L18.8115 14.419L20.7929 16.1338C20.901 16.2274 20.9947 16.3364 21.1033 16.5127L21.1718 16.6461C21.4978 17.3826 21.1649 18.2439 20.4284 18.5698L8.38068 23.9017C8.19479 23.9839 7.99376 24.0264 7.79049 24.0264C6.98507 24.0264 6.33215 23.3735 6.33215 22.5685L6.33089 19.8351L4.88145 16.5785C3.34903 13.1367 4.89216 9.12791 8.32883 7.5978ZM18.7265 6.64008C19.8546 7.25524 20.7588 8.15049 21.4288 9.31094C22.0988 10.4714 22.422 11.702 22.3907 12.9866C22.3789 13.4697 21.9777 13.8518 21.4946 13.84C21.0115 13.8282 20.6294 13.4271 20.6412 12.944C20.6646 11.9854 20.4245 11.0715 19.9132 10.1859C19.402 9.30036 18.7305 8.63552 17.8887 8.17651C17.4644 7.94517 17.308 7.41368 17.5394 6.98941C17.7707 6.56513 18.3022 6.40873 18.7265 6.64008Z" fill="currentColor"/>
</svg>
