<svg width="28" height="28" viewBox="0 0 28 28" fill="none" xmlns="http://www.w3.org/2000/svg">
<path d="M21.4181 11.9972C21.4718 12.0352 21.5232 12.0759 21.5721 12.1192C21.5751 12.0678 21.5766 12.0159 21.5766 11.9636V6.70829C21.5766 5.25854 20.4013 4.08329 18.9516 4.08329L14.8677 4.0827L14.8687 3.20886L14.8607 3.09013C14.8027 2.66304 14.4366 2.33386 13.9937 2.33386L13.8749 2.34185C13.4478 2.39979 13.1187 2.76588 13.1187 3.20886L13.1177 4.0827L9.03493 4.08329C7.58518 4.08329 6.40993 5.25854 6.40993 6.70829V11.9636C6.40993 13.4134 7.58518 14.5886 9.03493 14.5886H18.1165C18.1241 14.5685 18.1314 14.5482 18.1385 14.5278L18.1488 14.4969L18.6741 12.882L18.6789 12.8683C18.803 12.5167 19.0332 12.2124 19.3375 11.9973C19.6417 11.7821 20.0052 11.6666 20.3778 11.6666C20.7503 11.6666 21.1138 11.7821 21.4181 11.9972ZM11.3674 7.58329C12.1724 7.58329 12.8249 8.23583 12.8249 9.04079C12.8249 9.84575 12.1724 10.4983 11.3674 10.4983C10.5625 10.4983 9.90993 9.84575 9.90993 9.04079C9.90993 8.23583 10.5625 7.58329 11.3674 7.58329ZM16.609 7.58329C17.4139 7.58329 18.0665 8.23583 18.0665 9.04079C18.0665 9.84575 17.4139 10.4983 16.609 10.4983C15.804 10.4983 15.1515 9.84575 15.1515 9.04079C15.1515 8.23583 15.804 7.58329 16.609 7.58329ZM15.2095 16.3758L15.3408 16.3332H7.28906C5.83932 16.3332 4.66406 17.5084 4.66406 18.9582V20.0167C4.66406 21.2916 5.22016 22.5031 6.18688 23.3342C8.01023 24.9018 10.6222 25.6679 13.9933 25.6679C16.4152 25.6679 18.4461 25.2725 20.0749 24.4685C19.8224 24.4208 19.5816 24.3192 19.3696 24.1693C19.0653 23.9542 18.8352 23.6499 18.711 23.2983L18.7062 23.2846L18.1807 21.6688L18.1801 21.6669C18.1037 21.4358 17.9886 21.22 17.8403 21.0283C17.7857 20.9578 17.7266 20.8905 17.6632 20.827L17.2446 20.5216L16.826 20.3077L15.2095 19.7827L15.1958 19.7779C14.8444 19.654 14.5399 19.4242 14.3245 19.12C14.109 18.8158 13.9933 18.4522 13.9933 18.0793C13.9933 17.7064 14.109 17.3428 14.3245 17.0386C14.5399 16.7343 14.8444 16.5045 15.1958 16.3807L15.2095 16.3758ZM18.4894 20.0033C18.5873 20.1014 18.6786 20.2053 18.7629 20.3143C18.9926 20.611 19.1707 20.9455 19.2888 21.3037L19.8112 22.9099C19.8549 23.0337 19.9359 23.1409 20.0432 23.2167C20.1504 23.2926 20.2786 23.3333 20.4099 23.3333C20.5413 23.3333 20.6694 23.2926 20.7767 23.2167C20.8724 23.1491 20.9472 23.0565 20.9933 22.9494C20.9988 22.9364 21.004 22.9233 21.0087 22.9099L21.5311 21.3037C21.6936 20.8154 21.9678 20.3717 22.3319 20.0078C22.6961 19.6439 23.1401 19.37 23.6288 19.2076L25.2362 18.6856C25.3601 18.6419 25.4674 18.5609 25.5433 18.4538C25.6192 18.3466 25.6599 18.2186 25.6599 18.0873C25.6599 17.956 25.6192 17.828 25.5433 17.7208C25.4674 17.6137 25.3601 17.5327 25.2362 17.489L25.2041 17.481L23.5967 16.959C23.108 16.7966 22.6639 16.5226 22.2998 16.1588C21.9356 15.7949 21.6614 15.3512 21.499 14.8629L20.9766 13.2567C20.9328 13.1329 20.8518 13.0257 20.7445 12.9498C20.6373 12.874 20.5092 12.8333 20.3778 12.8333C20.2464 12.8333 20.1183 12.874 20.011 12.9498C19.9038 13.0257 19.8227 13.1329 19.779 13.2567L19.2566 14.8629L19.2433 14.9026C19.0826 15.3719 18.8183 15.7992 18.4698 16.1529C18.1114 16.5165 17.6738 16.7924 17.1911 16.959L15.5836 17.481C15.4597 17.5246 15.3525 17.6056 15.2766 17.7128C15.2007 17.82 15.1599 17.948 15.1599 18.0793C15.1599 18.2106 15.2007 18.3386 15.2766 18.4458C15.3525 18.5529 15.4597 18.6339 15.5836 18.6776L17.1911 19.1996C17.6806 19.3627 18.1252 19.6379 18.4894 20.0033ZM26.847 24.4587L27.74 24.7487L27.7579 24.7531C27.8267 24.7774 27.8863 24.8224 27.9285 24.8819C27.9706 24.9415 27.9933 25.0126 27.9933 25.0855C27.9933 25.1585 27.9706 25.2296 27.9285 25.2891C27.8863 25.3487 27.8267 25.3937 27.7579 25.4179L26.8649 25.7079C26.5934 25.7981 26.3467 25.9503 26.1444 26.1525C25.9421 26.3546 25.7897 26.6011 25.6995 26.8724L25.4092 27.7648C25.385 27.8335 25.3399 27.8931 25.2804 27.9352C25.2208 27.9773 25.1496 28 25.0766 28C25.0036 28 24.9324 27.9773 24.8728 27.9352C24.8133 27.8931 24.7682 27.8335 24.744 27.7648L24.4537 26.8724C24.3641 26.6003 24.212 26.3529 24.0097 26.1499C23.8073 25.947 23.5603 25.7941 23.2883 25.7035L22.3953 25.4135C22.3265 25.3892 22.2669 25.3442 22.2247 25.2847C22.1826 25.2251 22.1599 25.154 22.1599 25.0811C22.1599 25.0081 22.1826 24.937 22.2247 24.8775C22.2669 24.8179 22.3265 24.7729 22.3953 24.7487L23.2883 24.4587C23.5565 24.3661 23.7997 24.2129 23.9987 24.0109C24.1978 23.8088 24.3474 23.5636 24.4359 23.2942L24.7261 22.4018C24.7504 22.3331 24.7954 22.2735 24.855 22.2314C24.9146 22.1892 24.9858 22.1666 25.0587 22.1666C25.1317 22.1666 25.2029 22.1892 25.2625 22.2314C25.3221 22.2735 25.3671 22.3331 25.3914 22.4018L25.6816 23.2942C25.7719 23.5655 25.9242 23.812 26.1265 24.0141C26.3288 24.2163 26.5755 24.3685 26.847 24.4587Z" fill="currentColor"/>
</svg>
