<svg viewBox="0 0 28 28" fill="none" xmlns="http://www.w3.org/2000/svg">
<path d="M2.8008 9.79844C2.8008 5.15925 6.56161 1.39844 11.2008 1.39844C15.84 1.39844 19.6008 5.15925 19.6008 9.79844C19.6008 14.4376 15.84 18.1984 11.2008 18.1984C9.66973 18.1984 8.23263 17.7882 6.99543 17.0714L3.72216 18.1625C3.47581 18.2446 3.20426 18.1836 3.0167 18.004C2.82914 17.8245 2.7564 17.5558 2.82773 17.3061L3.82398 13.8193C3.17151 12.6245 2.8008 11.2538 2.8008 9.79844ZM9.10078 7.69844C8.71418 7.69844 8.40078 8.01184 8.40078 8.39844C8.40078 8.78504 8.71418 9.09844 9.10078 9.09844H13.3008C13.6874 9.09844 14.0008 8.78504 14.0008 8.39844C14.0008 8.01184 13.6874 7.69844 13.3008 7.69844H9.10078ZM11.9008 10.4984H9.10078C8.71418 10.4984 8.40078 10.8118 8.40078 11.1984C8.40078 11.585 8.71418 11.8984 9.10078 11.8984H11.9008C12.2874 11.8984 12.6008 11.585 12.6008 11.1984C12.6008 10.8118 12.2874 10.4984 11.9008 10.4984Z" fill="currentColor"/>
<path d="M17.1877 20.9245L13.825 19.2431C14.4407 19.0724 15.032 18.8431 15.5926 18.5617L17.5007 19.5157L23.8008 16.3657V15.3984C23.8008 14.6252 23.174 13.9984 22.4008 13.9984H20.0577C20.271 13.5495 20.4511 13.0818 20.5949 12.5984H22.4008C23.9472 12.5984 25.2008 13.852 25.2008 15.3984V22.3984C25.2008 23.9448 23.9472 25.1984 22.4008 25.1984H12.6008C11.0544 25.1984 9.80078 23.9448 9.80078 22.3984V19.4992C10.258 19.5646 10.7255 19.5984 11.2008 19.5984V22.3984C11.2008 23.1716 11.8276 23.7984 12.6008 23.7984H22.4008C23.174 23.7984 23.8008 23.1716 23.8008 22.3984V17.931L17.8138 20.9245C17.6167 21.023 17.3848 21.023 17.1877 20.9245Z" fill="currentColor"/>
</svg>
