<svg viewBox="0 0 1120 713" fill="none" xmlns="http://www.w3.org/2000/svg">
<g clip-path="url(#clip0_1871_8065)">
<g filter="url(#filter0_f_1871_8065)">
<circle cx="567" cy="324" r="50" fill="url(#paint0_linear_1871_8065)"/>
</g>
<line x1="511.039" y1="325.5" x2="297.002" y2="325.5" stroke="#444649" stroke-width="3"/>
<path d="M606.258 315.799H843.43C846.617 315.799 849.232 313.202 849.232 310.037L849.233 258.927V71.1116C849.233 67.9452 851.846 65.3489 855.033 65.3489H994.621" stroke="#444649" stroke-width="3"/>
<path d="M606.258 315.799H843.43C846.617 315.799 849.232 313.202 849.232 310.036L849.231 258.927V155.24C849.231 152.073 851.844 149.477 855.031 149.477H994.621" stroke="#444649" stroke-width="3"/>
<path d="M606.258 315.799H843.43C846.617 315.799 849.232 313.202 849.232 310.037V237.678C849.232 234.512 851.846 231.915 855.033 231.915H994.621" stroke="#444649" stroke-width="3"/>
<path d="M995 468H849.836C846.795 468 844.357 465.521 844.357 462.426V337.574C844.357 334.479 841.92 332 838.879 332H571" stroke="#444649" stroke-width="3"/>
<path d="M995 550.81L849.854 551C846.811 551.002 844.37 548.527 844.37 545.439V345.116C844.357 334.474 841.92 332 838.879 332H571" stroke="#444649" stroke-width="3"/>
<path d="M995 634H849.834C846.794 634 844.357 631.527 844.357 628.442V345.11C844.357 334.473 841.92 332 838.879 332H571" stroke="#444649" stroke-width="3"/>
<path d="M624.833 261H508.167C505.866 261 504 262.866 504 265.169V381.831C504 384.134 505.866 386 508.167 386H624.833C627.134 386 629 384.134 629 381.831V265.169C629 262.866 627.134 261 624.833 261Z" fill="url(#paint1_linear_1871_8065)"/>
<path fill-rule="evenodd" clip-rule="evenodd" d="M556.949 302H564.877L562.603 311.281L578.252 311.256L580.519 302H588.447L586.183 311.243L591.452 311.235V318.161L584.486 318.172L581.839 328.977L587.913 328.968V335.894L580.141 335.906L577.877 345.151H569.949L572.21 335.919L556.562 335.944L554.306 345.151H546.379L548.631 335.956L542 335.967L542 329.041L550.328 329.027L552.975 318.222L545.539 318.234L545.539 311.308L554.673 311.293L556.949 302ZM573.908 328.99L576.327 319.116L567.532 323.082C567.26 323.205 566.943 323.179 566.694 323.014L560.701 319.046L558.259 329.015L573.908 328.99ZM562.201 318.278L567.453 320.225C567.626 320.289 567.814 320.297 567.991 320.247L574.971 318.278H562.201Z" fill="#FBFBFB"/>
<g clip-path="url(#clip1_1871_8065)">
<path d="M1047 454C1043.29 454 1039.72 455.476 1037.1 458.1C1034.48 460.726 1033 464.287 1033 468C1033 471.712 1034.48 475.275 1037.1 477.9C1039.72 480.524 1043.29 482 1047 482C1050.71 482 1054.28 480.524 1056.9 477.9C1059.52 475.275 1061 471.712 1061 468C1061 464.288 1059.52 460.725 1056.9 458.1C1054.28 455.476 1050.71 454 1047 454Z" fill="url(#paint2_linear_1871_8065)"/>
<path d="M1039.33 467.852C1043.42 466.074 1046.14 464.902 1047.5 464.335C1051.39 462.718 1052.19 462.437 1052.72 462.428C1052.84 462.426 1053.1 462.455 1053.26 462.591C1053.4 462.706 1053.44 462.861 1053.46 462.97C1053.48 463.079 1053.5 463.327 1053.48 463.521C1053.27 465.735 1052.36 471.107 1051.9 473.586C1051.7 474.635 1051.32 474.987 1050.94 475.022C1050.13 475.096 1049.51 474.484 1048.72 473.968C1047.49 473.16 1046.8 472.658 1045.6 471.87C1044.22 470.959 1045.12 470.458 1045.9 469.64C1046.11 469.426 1049.69 466.167 1049.76 465.872C1049.77 465.835 1049.78 465.697 1049.69 465.625C1049.61 465.552 1049.49 465.577 1049.41 465.596C1049.28 465.624 1047.31 466.925 1043.5 469.499C1042.94 469.883 1042.44 470.07 1041.98 470.06C1041.48 470.05 1040.52 469.778 1039.8 469.545C1038.93 469.26 1038.23 469.11 1038.29 468.626C1038.32 468.374 1038.67 468.116 1039.33 467.852Z" fill="white"/>
</g>
<g clip-path="url(#clip2_1871_8065)">
<path d="M1039.36 159.005V148.187L1036.01 145.118L1033 143.414V157.096C1033 158.152 1033.86 159.005 1034.91 159.005H1039.36Z" fill="#4285F4"/>
<path d="M1054.63 159.005H1059.09C1060.14 159.005 1061 158.149 1061 157.096V143.415L1057.59 145.365L1054.63 148.187V159.005Z" fill="#34A853"/>
<path d="M1039.36 148.187L1038.91 143.96L1039.36 139.915L1047 145.642L1054.64 139.915L1055.15 143.742L1054.64 148.187L1047 153.914L1039.36 148.187Z" fill="#EA4335"/>
<path d="M1054.63 139.914V148.187L1061 143.414V140.869C1061 138.508 1058.3 137.162 1056.41 138.578L1054.63 139.914Z" fill="#FBBC04"/>
<path d="M1033 143.414L1035.93 145.61L1039.36 148.187V139.914L1037.58 138.578C1035.69 137.162 1033 138.508 1033 140.869V143.414V143.414Z" fill="#C5221F"/>
</g>
<path d="M1050.05 224.945V229.737L1051.72 230.792C1051.78 230.805 1051.85 230.805 1051.91 230.792L1059.12 225.932C1059.11 225.696 1059.02 225.469 1058.87 225.289C1058.72 225.11 1058.51 224.988 1058.28 224.945H1050.05Z" fill="#0072C6"/>
<path d="M1050.05 231.525L1051.58 232.575C1051.65 232.618 1051.73 232.642 1051.82 232.642C1051.9 232.642 1051.98 232.618 1052.05 232.575C1051.79 232.733 1059.12 227.869 1059.12 227.869V236.677C1059.14 236.855 1059.12 237.036 1059.06 237.206C1059 237.376 1058.91 237.531 1058.78 237.66C1058.66 237.79 1058.51 237.891 1058.34 237.956C1058.17 238.021 1057.99 238.049 1057.81 238.038H1050.05L1050.05 231.525ZM1042.14 229.316C1041.88 229.314 1041.63 229.382 1041.41 229.511C1041.2 229.64 1041.02 229.826 1040.89 230.049C1040.56 230.64 1040.4 231.312 1040.43 231.99C1040.4 232.665 1040.56 233.337 1040.89 233.925C1041.02 234.139 1041.19 234.317 1041.4 234.441C1041.61 234.566 1041.86 234.633 1042.1 234.634C1042.35 234.636 1042.59 234.574 1042.8 234.453C1043.02 234.331 1043.19 234.156 1043.32 233.944C1043.65 233.359 1043.81 232.691 1043.77 232.019C1043.81 231.327 1043.66 230.637 1043.33 230.023C1043.22 229.808 1043.04 229.628 1042.83 229.503C1042.62 229.378 1042.38 229.313 1042.14 229.316Z" fill="#0072C6"/>
<path d="M1034.88 222.511V241.259L1049.15 244.25V219.75L1034.88 222.511ZM1044.43 235.055C1044.16 235.431 1043.81 235.736 1043.39 235.943C1042.98 236.151 1042.53 236.255 1042.06 236.245C1041.62 236.253 1041.17 236.153 1040.77 235.952C1040.37 235.751 1040.02 235.456 1039.75 235.092C1039.13 234.219 1038.82 233.16 1038.87 232.088C1038.81 230.962 1039.13 229.85 1039.77 228.924C1040.04 228.54 1040.4 228.229 1040.82 228.018C1041.24 227.807 1041.71 227.702 1042.17 227.713C1042.62 227.704 1043.06 227.804 1043.46 228.006C1043.86 228.207 1044.2 228.504 1044.46 228.868C1045.08 229.761 1045.38 230.832 1045.33 231.917C1045.39 233.034 1045.07 234.138 1044.43 235.055Z" fill="#0072C6"/>
<g clip-path="url(#clip3_1871_8065)">
<path d="M1061 625.784C1059.95 626.248 1058.84 626.553 1057.7 626.688C1058.89 625.977 1059.8 624.851 1060.23 623.51C1059.1 624.179 1057.87 624.651 1056.58 624.904C1055.53 623.788 1054.04 623.09 1052.39 623.09C1049.21 623.09 1046.64 625.662 1046.64 628.834C1046.64 629.285 1046.69 629.723 1046.79 630.143C1042.02 629.904 1037.78 627.617 1034.95 624.141C1034.45 624.99 1034.17 625.977 1034.17 627.029C1034.17 629.022 1035.19 630.781 1036.73 631.811C1035.81 631.782 1034.92 631.536 1034.13 631.092C1034.12 631.116 1034.12 631.14 1034.12 631.164C1034.12 633.948 1036.1 636.27 1038.73 636.797C1037.89 637.027 1037 637.061 1036.14 636.896C1036.87 639.178 1038.99 640.839 1041.5 640.885C1039.54 642.426 1037.06 643.344 1034.37 643.344C1033.91 643.344 1033.45 643.317 1033 643.264C1035.54 644.894 1038.56 645.845 1041.81 645.845C1052.37 645.845 1058.15 637.091 1058.15 629.5C1058.15 629.251 1058.14 629.004 1058.13 628.757C1059.26 627.944 1060.23 626.937 1061 625.784Z" fill="#55ACEE"/>
</g>
<rect x="37.5" y="290.5" width="275" height="67" rx="3.5" fill="#1A1918" stroke="#444649"/>
<path d="M100.395 321.68H101.995L96.8747 334.26C96.7547 334.553 96.6214 334.807 96.4747 335.02C96.328 335.247 96.1547 335.427 95.9547 335.56C95.7547 335.707 95.5147 335.813 95.2347 335.88C94.9547 335.96 94.6214 336 94.2347 336H92.7147V334.64H95.1147L96.2747 331.8L92.1147 321.68H93.7547L95.4947 326L97.0347 329.92H97.1147L98.6547 326L100.395 321.68ZM109.047 332.24C108.327 332.24 107.674 332.113 107.087 331.86C106.514 331.607 106.02 331.247 105.607 330.78C105.207 330.3 104.9 329.733 104.687 329.08C104.474 328.413 104.367 327.667 104.367 326.84C104.367 326.027 104.474 325.287 104.687 324.62C104.9 323.953 105.207 323.387 105.607 322.92C106.02 322.44 106.514 322.073 107.087 321.82C107.674 321.567 108.327 321.44 109.047 321.44C109.767 321.44 110.414 321.567 110.987 321.82C111.574 322.073 112.067 322.44 112.467 322.92C112.88 323.387 113.194 323.953 113.407 324.62C113.62 325.287 113.727 326.027 113.727 326.84C113.727 327.667 113.62 328.413 113.407 329.08C113.194 329.733 112.88 330.3 112.467 330.78C112.067 331.247 111.574 331.607 110.987 331.86C110.414 332.113 109.767 332.24 109.047 332.24ZM109.047 330.86C109.94 330.86 110.66 330.593 111.207 330.06C111.754 329.527 112.027 328.7 112.027 327.58V326.1C112.027 324.98 111.754 324.153 111.207 323.62C110.66 323.087 109.94 322.82 109.047 322.82C108.154 322.82 107.434 323.087 106.887 323.62C106.34 324.153 106.067 324.98 106.067 326.1V327.58C106.067 328.7 106.34 329.527 106.887 330.06C107.434 330.593 108.154 330.86 109.047 330.86ZM123.479 330.32H123.399C123.292 330.573 123.159 330.82 122.999 331.06C122.839 331.287 122.639 331.487 122.399 331.66C122.172 331.833 121.899 331.973 121.579 332.08C121.259 332.187 120.886 332.24 120.459 332.24C119.379 332.24 118.512 331.9 117.859 331.22C117.206 330.527 116.879 329.553 116.879 328.3V321.68H118.479V328.02C118.479 328.967 118.686 329.673 119.099 330.14C119.512 330.593 120.119 330.82 120.919 330.82C121.239 330.82 121.552 330.78 121.859 330.7C122.166 330.62 122.439 330.5 122.679 330.34C122.919 330.18 123.112 329.98 123.259 329.74C123.406 329.487 123.479 329.187 123.479 328.84V321.68H125.079V332H123.479V330.32ZM128.571 330.64H131.591V323.04H128.571V321.68H133.191V324.28H133.291C133.505 323.467 133.905 322.833 134.491 322.38C135.091 321.913 135.851 321.68 136.771 321.68H138.211V323.28H136.271C135.351 323.28 134.605 323.547 134.031 324.08C133.471 324.613 133.191 325.313 133.191 326.18V330.64H137.191V332H128.571V330.64ZM159.516 330.32H159.436C158.769 331.6 157.709 332.24 156.256 332.24C154.989 332.24 153.996 331.767 153.276 330.82C152.569 329.873 152.216 328.547 152.216 326.84C152.216 325.133 152.569 323.807 153.276 322.86C153.996 321.913 154.989 321.44 156.256 321.44C157.709 321.44 158.769 322.08 159.436 323.36H159.516V317.2H161.116V332H159.516V330.32ZM156.876 330.82C157.236 330.82 157.576 330.773 157.896 330.68C158.216 330.587 158.496 330.453 158.736 330.28C158.976 330.093 159.162 329.873 159.296 329.62C159.442 329.353 159.516 329.047 159.516 328.7V324.98C159.516 324.633 159.442 324.333 159.296 324.08C159.162 323.813 158.976 323.593 158.736 323.42C158.496 323.233 158.216 323.093 157.896 323C157.576 322.907 157.236 322.86 156.876 322.86C155.942 322.86 155.216 323.147 154.696 323.72C154.189 324.28 153.936 325.027 153.936 325.96V327.72C153.936 328.653 154.189 329.407 154.696 329.98C155.216 330.54 155.942 330.82 156.876 330.82ZM172.908 332C172.281 332 171.834 331.84 171.568 331.52C171.301 331.2 171.134 330.8 171.068 330.32H170.968C170.741 330.92 170.374 331.393 169.868 331.74C169.374 332.073 168.708 332.24 167.868 332.24C166.788 332.24 165.928 331.96 165.288 331.4C164.648 330.84 164.328 330.073 164.328 329.1C164.328 328.14 164.674 327.4 165.368 326.88C166.074 326.36 167.208 326.1 168.768 326.1H170.968V325.08C170.968 324.32 170.754 323.753 170.328 323.38C169.901 322.993 169.294 322.8 168.508 322.8C167.814 322.8 167.248 322.94 166.808 323.22C166.368 323.487 166.014 323.853 165.748 324.32L164.668 323.52C164.801 323.253 164.981 322.993 165.208 322.74C165.434 322.487 165.714 322.267 166.048 322.08C166.381 321.88 166.761 321.727 167.188 321.62C167.614 321.5 168.088 321.44 168.608 321.44C169.821 321.44 170.781 321.747 171.488 322.36C172.208 322.973 172.568 323.827 172.568 324.92V330.6H174.008V332H172.908ZM168.148 330.9C168.561 330.9 168.934 330.853 169.268 330.76C169.614 330.653 169.914 330.52 170.168 330.36C170.421 330.187 170.614 329.987 170.748 329.76C170.894 329.52 170.968 329.267 170.968 329V327.3H168.768C167.808 327.3 167.108 327.433 166.668 327.7C166.228 327.967 166.008 328.353 166.008 328.86V329.28C166.008 329.813 166.194 330.22 166.568 330.5C166.954 330.767 167.481 330.9 168.148 330.9ZM176.9 321.68H178.5V323.36H178.58C179.247 322.08 180.307 321.44 181.76 321.44C183.027 321.44 184.013 321.913 184.72 322.86C185.44 323.807 185.8 325.133 185.8 326.84C185.8 328.547 185.44 329.873 184.72 330.82C184.013 331.767 183.027 332.24 181.76 332.24C180.307 332.24 179.247 331.6 178.58 330.32H178.5V336H176.9V321.68ZM181.14 330.82C182.073 330.82 182.793 330.54 183.3 329.98C183.82 329.407 184.08 328.653 184.08 327.72V325.96C184.08 325.027 183.82 324.28 183.3 323.72C182.793 323.147 182.073 322.86 181.14 322.86C180.78 322.86 180.44 322.907 180.12 323C179.8 323.093 179.52 323.233 179.28 323.42C179.04 323.593 178.847 323.813 178.7 324.08C178.567 324.333 178.5 324.633 178.5 324.98V328.7C178.5 329.047 178.567 329.353 178.7 329.62C178.847 329.873 179.04 330.093 179.28 330.28C179.52 330.453 179.8 330.587 180.12 330.68C180.44 330.773 180.78 330.82 181.14 330.82ZM188.892 321.68H190.492V323.36H190.572C191.239 322.08 192.299 321.44 193.752 321.44C195.019 321.44 196.006 321.913 196.712 322.86C197.432 323.807 197.792 325.133 197.792 326.84C197.792 328.547 197.432 329.873 196.712 330.82C196.006 331.767 195.019 332.24 193.752 332.24C192.299 332.24 191.239 331.6 190.572 330.32H190.492V336H188.892V321.68ZM193.132 330.82C194.066 330.82 194.786 330.54 195.292 329.98C195.812 329.407 196.072 328.653 196.072 327.72V325.96C196.072 325.027 195.812 324.28 195.292 323.72C194.786 323.147 194.066 322.86 193.132 322.86C192.772 322.86 192.432 322.907 192.112 323C191.792 323.093 191.512 323.233 191.272 323.42C191.032 323.593 190.839 323.813 190.692 324.08C190.559 324.333 190.492 324.633 190.492 324.98V328.7C190.492 329.047 190.559 329.353 190.692 329.62C190.839 329.873 191.032 330.093 191.272 330.28C191.512 330.453 191.792 330.587 192.112 330.68C192.432 330.773 192.772 330.82 193.132 330.82ZM212.937 317.2H214.537V323.36H214.617C214.723 323.107 214.857 322.867 215.017 322.64C215.177 322.4 215.37 322.193 215.597 322.02C215.837 321.847 216.117 321.707 216.437 321.6C216.757 321.493 217.13 321.44 217.557 321.44C218.637 321.44 219.503 321.787 220.157 322.48C220.81 323.16 221.137 324.127 221.137 325.38V332H219.537V325.66C219.537 324.713 219.33 324.013 218.917 323.56C218.503 323.093 217.897 322.86 217.097 322.86C216.777 322.86 216.463 322.9 216.157 322.98C215.85 323.06 215.577 323.18 215.337 323.34C215.097 323.5 214.903 323.707 214.757 323.96C214.61 324.213 214.537 324.507 214.537 324.84V332H212.937V317.2ZM229.149 332.24C228.402 332.24 227.729 332.113 227.129 331.86C226.542 331.607 226.035 331.247 225.609 330.78C225.195 330.3 224.875 329.733 224.649 329.08C224.422 328.413 224.309 327.673 224.309 326.86C224.309 326.033 224.422 325.287 224.649 324.62C224.889 323.953 225.215 323.387 225.629 322.92C226.042 322.44 226.535 322.073 227.109 321.82C227.695 321.567 228.342 321.44 229.049 321.44C229.742 321.44 230.369 321.567 230.929 321.82C231.502 322.073 231.989 322.427 232.389 322.88C232.789 323.32 233.095 323.847 233.309 324.46C233.522 325.073 233.629 325.747 233.629 326.48V327.24H225.989V327.72C225.989 328.173 226.062 328.593 226.209 328.98C226.355 329.367 226.562 329.7 226.829 329.98C227.109 330.26 227.442 330.48 227.829 330.64C228.229 330.787 228.669 330.86 229.149 330.86C229.842 330.86 230.442 330.7 230.949 330.38C231.455 330.06 231.842 329.62 232.109 329.06L233.289 329.86C232.982 330.553 232.469 331.127 231.749 331.58C231.042 332.02 230.175 332.24 229.149 332.24ZM229.049 322.76C228.609 322.76 228.202 322.84 227.829 323C227.455 323.16 227.129 323.38 226.849 323.66C226.582 323.94 226.369 324.273 226.209 324.66C226.062 325.033 225.989 325.447 225.989 325.9V326.04H231.909V325.82C231.909 325.367 231.835 324.953 231.689 324.58C231.555 324.207 231.362 323.887 231.109 323.62C230.869 323.34 230.569 323.127 230.209 322.98C229.862 322.833 229.475 322.76 229.049 322.76ZM236.501 330.64H239.521V323.04H236.501V321.68H241.121V324.28H241.221C241.434 323.467 241.834 322.833 242.421 322.38C243.021 321.913 243.781 321.68 244.701 321.68H246.141V323.28H244.201C243.281 323.28 242.534 323.547 241.961 324.08C241.401 324.613 241.121 325.313 241.121 326.18V330.64H245.121V332H236.501V330.64ZM253.133 332.24C252.386 332.24 251.713 332.113 251.113 331.86C250.526 331.607 250.02 331.247 249.593 330.78C249.18 330.3 248.86 329.733 248.633 329.08C248.406 328.413 248.293 327.673 248.293 326.86C248.293 326.033 248.406 325.287 248.633 324.62C248.873 323.953 249.2 323.387 249.613 322.92C250.026 322.44 250.52 322.073 251.093 321.82C251.68 321.567 252.326 321.44 253.033 321.44C253.726 321.44 254.353 321.567 254.913 321.82C255.486 322.073 255.973 322.427 256.373 322.88C256.773 323.32 257.08 323.847 257.293 324.46C257.506 325.073 257.613 325.747 257.613 326.48V327.24H249.973V327.72C249.973 328.173 250.046 328.593 250.193 328.98C250.34 329.367 250.546 329.7 250.813 329.98C251.093 330.26 251.426 330.48 251.813 330.64C252.213 330.787 252.653 330.86 253.133 330.86C253.826 330.86 254.426 330.7 254.933 330.38C255.44 330.06 255.826 329.62 256.093 329.06L257.273 329.86C256.966 330.553 256.453 331.127 255.733 331.58C255.026 332.02 254.16 332.24 253.133 332.24ZM253.033 322.76C252.593 322.76 252.186 322.84 251.813 323C251.44 323.16 251.113 323.38 250.833 323.66C250.566 323.94 250.353 324.273 250.193 324.66C250.046 325.033 249.973 325.447 249.973 325.9V326.04H255.893V325.82C255.893 325.367 255.82 324.953 255.673 324.58C255.54 324.207 255.346 323.887 255.093 323.62C254.853 323.34 254.553 323.127 254.193 322.98C253.846 322.833 253.46 322.76 253.033 322.76Z" fill="#F6C723"/>
<line x1="997" y1="468" x2="1023" y2="468" stroke="#F6C723" stroke-width="3" stroke-dasharray="4 2"/>
<line x1="997" y1="231.9" x2="1023" y2="231.9" stroke="#F6C723" stroke-width="3" stroke-dasharray="4 2"/>
<line x1="997" y1="149.5" x2="1023" y2="149.5" stroke="#F6C723" stroke-width="3" stroke-dasharray="4 2"/>
<line x1="997" y1="65.3501" x2="1023" y2="65.3501" stroke="#F6C723" stroke-width="3" stroke-dasharray="4 2"/>
<line x1="997" y1="550.75" x2="1023" y2="550.75" stroke="#F6C723" stroke-width="3" stroke-dasharray="4 2"/>
<line x1="997" y1="634" x2="1023" y2="634" stroke="#F6C723" stroke-width="3" stroke-dasharray="4 2"/>
<circle cx="1047" cy="551" r="14" fill="#5865F2"/>
<path d="M1053.24 545.137C1052.07 544.602 1050.84 544.22 1049.57 544.001C1049.56 543.999 1049.55 544 1049.54 544.005C1049.53 544.01 1049.52 544.019 1049.52 544.029C1049.36 544.31 1049.18 544.677 1049.06 544.966C1047.68 544.759 1046.3 544.759 1044.94 544.966C1044.82 544.671 1044.64 544.31 1044.48 544.029C1044.47 544.019 1044.47 544.011 1044.46 544.006C1044.44 544.001 1044.43 543.999 1044.42 544.001C1043.16 544.219 1041.92 544.601 1040.76 545.137C1040.75 545.142 1040.74 545.149 1040.73 545.158C1038.4 548.644 1037.76 552.045 1038.07 555.403C1038.08 555.412 1038.08 555.42 1038.08 555.427C1038.09 555.434 1038.09 555.44 1038.1 555.445C1039.64 556.576 1041.13 557.263 1042.59 557.718C1042.6 557.721 1042.62 557.721 1042.63 557.717C1042.64 557.713 1042.65 557.706 1042.66 557.697C1043 557.224 1043.31 556.725 1043.58 556.201C1043.58 556.194 1043.58 556.186 1043.58 556.178C1043.58 556.17 1043.58 556.162 1043.58 556.155C1043.57 556.147 1043.57 556.14 1043.56 556.135C1043.56 556.129 1043.55 556.125 1043.54 556.122C1043.05 555.936 1042.59 555.71 1042.14 555.453C1042.13 555.448 1042.12 555.441 1042.12 555.433C1042.11 555.425 1042.11 555.416 1042.11 555.406C1042.11 555.397 1042.11 555.387 1042.12 555.379C1042.12 555.37 1042.13 555.363 1042.13 555.357C1042.23 555.286 1042.32 555.213 1042.41 555.138C1042.42 555.132 1042.43 555.128 1042.44 555.126C1042.45 555.125 1042.46 555.126 1042.47 555.13C1045.42 556.475 1048.61 556.475 1051.52 555.13C1051.53 555.126 1051.54 555.124 1051.55 555.126C1051.56 555.127 1051.57 555.131 1051.58 555.138C1051.67 555.213 1051.76 555.286 1051.86 555.357C1051.86 555.363 1051.87 555.37 1051.87 555.379C1051.88 555.387 1051.88 555.397 1051.88 555.406C1051.88 555.416 1051.88 555.425 1051.87 555.433C1051.87 555.441 1051.86 555.448 1051.85 555.453C1051.4 555.715 1050.93 555.938 1050.45 556.121C1050.44 556.124 1050.43 556.128 1050.43 556.134C1050.42 556.14 1050.42 556.147 1050.41 556.154C1050.41 556.162 1050.41 556.17 1050.41 556.178C1050.41 556.186 1050.41 556.194 1050.42 556.201C1050.68 556.721 1050.99 557.221 1051.33 557.696C1051.34 557.706 1051.35 557.713 1051.36 557.717C1051.37 557.721 1051.39 557.721 1051.4 557.718C1052.87 557.263 1054.36 556.576 1055.9 555.445C1055.91 555.441 1055.91 555.434 1055.92 555.427C1055.92 555.42 1055.92 555.412 1055.92 555.404C1056.3 551.521 1055.29 548.149 1053.26 545.159C1053.26 545.149 1053.25 545.141 1053.24 545.137ZM1044.02 553.358C1043.13 553.358 1042.4 552.544 1042.4 551.544C1042.4 550.544 1043.11 549.73 1044.02 549.73C1044.92 549.73 1045.65 550.551 1045.63 551.544C1045.63 552.544 1044.92 553.358 1044.02 553.358ZM1050 553.358C1049.11 553.358 1048.38 552.544 1048.38 551.544C1048.38 550.544 1049.09 549.73 1050 549.73C1050.9 549.73 1051.63 550.551 1051.61 551.544C1051.61 552.544 1050.9 553.358 1050 553.358Z" fill="white"/>
<path d="M1036.5 56.8333V71.7083C1036.5 73.8024 1038.2 75.5 1040.29 75.5H1054.29C1056.39 75.5 1058.08 73.8024 1058.08 71.7083V61.7917C1058.08 59.9987 1056.84 58.4965 1055.17 58.1015V57.125C1055.17 55.6753 1053.99 54.5 1052.54 54.5H1039.13C1037.77 54.5 1036.66 55.5208 1036.52 56.8333H1036.5ZM1039.13 58C1038.64 58 1038.25 57.6082 1038.25 57.125C1038.25 56.6418 1038.64 56.25 1039.13 56.25H1052.54C1053.02 56.25 1053.42 56.6418 1053.42 57.125V58H1039.13ZM1051.96 66.1667H1054.29C1054.77 66.1667 1055.17 66.5584 1055.17 67.0417C1055.17 67.5249 1054.77 67.9167 1054.29 67.9167H1051.96C1051.48 67.9167 1051.08 67.5249 1051.08 67.0417C1051.08 66.5584 1051.48 66.1667 1051.96 66.1667Z" fill="url(#paint3_linear_1871_8065)"/>
</g>
<defs>
<filter id="filter0_f_1871_8065" x="392" y="149" width="350" height="350" filterUnits="userSpaceOnUse" color-interpolation-filters="sRGB">
<feFlood flood-opacity="0" result="BackgroundImageFix"/>
<feBlend mode="normal" in="SourceGraphic" in2="BackgroundImageFix" result="shape"/>
<feGaussianBlur stdDeviation="62.5" result="effect1_foregroundBlur_1871_8065"/>
</filter>
<linearGradient id="paint0_linear_1871_8065" x1="521.763" y1="329.357" x2="610.651" y2="328.454" gradientUnits="userSpaceOnUse">
<stop stop-color="#E27469"/>
<stop offset="1" stop-color="#D74634"/>
</linearGradient>
<linearGradient id="paint1_linear_1871_8065" x1="509.954" y1="330.197" x2="621.064" y2="329.068" gradientUnits="userSpaceOnUse">
<stop stop-color="#E27469"/>
<stop offset="1" stop-color="#D74634"/>
</linearGradient>
<linearGradient id="paint2_linear_1871_8065" x1="2433" y1="454" x2="2433" y2="3254" gradientUnits="userSpaceOnUse">
<stop stop-color="#2AABEE"/>
<stop offset="1" stop-color="#229ED9"/>
</linearGradient>
<linearGradient id="paint3_linear_1871_8065" x1="1037.53" y1="66.125" x2="1056.71" y2="65.9247" gradientUnits="userSpaceOnUse">
<stop stop-color="#E27469"/>
<stop offset="1" stop-color="#D74634"/>
</linearGradient>
<clipPath id="clip0_1871_8065">
<rect width="1120" height="713" fill="white"/>
</clipPath>
<clipPath id="clip1_1871_8065">
<rect width="28" height="28" fill="white" transform="translate(1033 454)"/>
</clipPath>
<clipPath id="clip2_1871_8065">
<rect width="28" height="21.109" fill="white" transform="translate(1033 138)"/>
</clipPath>
<clipPath id="clip3_1871_8065">
<rect width="28" height="22.8594" fill="white" transform="translate(1033 623)"/>
</clipPath>
</defs>
</svg>
