<svg viewBox="0 0 28 28" fill="none" xmlns="http://www.w3.org/2000/svg">
<path d="M20.1257 2.32812C21.8976 2.32812 23.334 3.76454 23.334 5.53646V13.2444C23.0558 13.1657 22.7623 13.1237 22.459 13.1237H18.6673V7.84963C18.6673 7.37964 18.2756 6.99865 17.7923 6.99865C17.3091 6.99865 16.9173 7.37964 16.9173 7.84963V13.4735C15.8785 14.0045 15.1673 15.0852 15.1673 16.332V16.3903C14.6028 16.5049 14.0975 16.7826 13.7026 17.172L13.6677 13.6672C13.6631 13.1992 13.2768 12.8236 12.8049 12.8281C12.3331 12.8328 11.9544 13.216 11.959 13.6839L12.0002 17.8225C12.0049 18.2905 12.3912 18.6661 12.863 18.6615C12.8732 18.6614 12.8832 18.6612 12.8933 18.6607C12.8544 18.8506 12.834 19.0473 12.834 19.2487V23.3281H5.54232C3.7704 23.3281 2.33398 21.8917 2.33398 20.1198V5.53646C2.33398 3.76454 3.7704 2.32812 5.54232 2.32812H20.1257ZM7.87565 9.33198C7.3924 9.33198 7.00065 9.72205 7.00065 10.2032V17.7941C7.00065 18.2753 7.3924 18.6653 7.87565 18.6653C8.3589 18.6653 8.75065 18.2753 8.75065 17.7941V10.2032C8.75065 9.72205 8.3589 9.33198 7.87565 9.33198ZM16.334 17.4987H15.7507C14.7842 17.4987 14.0007 18.2822 14.0007 19.2487V20.9987H16.9173V20.707C16.9173 20.2237 17.3091 19.832 17.7923 19.832C18.2756 19.832 18.6673 20.2237 18.6673 20.707V20.9987H22.1673V20.707C22.1673 20.2237 22.5591 19.832 23.0423 19.832C23.5256 19.832 23.9173 20.2237 23.9173 20.707V20.9987H26.834V19.2487C26.834 18.2822 26.0505 17.4987 25.084 17.4987H24.5007V16.332C24.5007 15.2044 23.5866 14.2903 22.459 14.2903H18.3757C17.2481 14.2903 16.334 15.2044 16.334 16.332V17.4987ZM18.084 16.332C18.084 16.1709 18.2146 16.0403 18.3757 16.0403H22.459C22.6201 16.0403 22.7507 16.1709 22.7507 16.332V17.4987H18.084V16.332ZM14.0007 25.082V22.7487H16.9173V23.6237C16.9173 24.1069 17.3091 24.4987 17.7923 24.4987C18.2756 24.4987 18.6673 24.1069 18.6673 23.6237V22.7487H22.1673V23.6237C22.1673 24.1069 22.5591 24.4987 23.0423 24.4987C23.5256 24.4987 23.9173 24.1069 23.9173 23.6237V22.7487H26.834V25.082C26.834 26.0485 26.0505 26.832 25.084 26.832H15.7507C14.7842 26.832 14.0007 26.0485 14.0007 25.082Z" fill="currentColor"/>
</svg>
