<svg viewBox="0 0 25 28" fill="none" xmlns="http://www.w3.org/2000/svg">
<g clip-path="url(#clip0_1993_9329)">
<path d="M11.8106 6.78157V4.98599C11.38 4.87166 10.9871 4.64581 10.6716 4.33122C10.3562 4.01663 10.1292 3.62441 10.0137 3.19413C9.89812 2.76384 9.89807 2.3107 10.0135 1.88039C10.129 1.45008 10.3558 1.05782 10.6713 0.743156C10.906 0.507599 11.185 0.320699 11.4921 0.193172C11.7993 0.0656454 12.1286 0 12.4611 0C12.7937 0 13.123 0.0656454 13.4302 0.193172C13.7373 0.320699 14.0163 0.507599 14.251 0.743156C14.5721 1.06322 14.8014 1.46348 14.9153 1.90227C15.0291 2.34106 15.0232 2.80233 14.8983 3.23809C14.7734 3.67385 14.5339 4.06816 14.2049 4.37997C13.8758 4.69178 13.4692 4.90971 13.0274 5.01106V6.71321L12.9887 6.69498C12.9199 6.67629 12.8498 6.66258 12.779 6.65396C12.6849 6.64856 12.5906 6.64856 12.4965 6.65396H12.4646C12.3883 6.65368 12.3122 6.65902 12.2367 6.66991C12.1843 6.66991 12.1205 6.6927 12.0498 6.71093C11.9722 6.72851 11.896 6.75212 11.822 6.78157H11.8038H11.8106ZM7.70899 10.7715L12.3278 8.18521L12.3848 8.16243C12.4326 8.14691 12.4826 8.13922 12.5329 8.13964C12.576 8.13919 12.6189 8.14456 12.6605 8.15559C12.6969 8.16309 12.7312 8.17866 12.7608 8.20116L17.3318 10.8467C17.4414 10.8887 17.5315 10.9699 17.5847 11.0745C17.6324 11.1658 17.6559 11.2678 17.6531 11.3708V16.7051C17.6475 16.7926 17.6197 16.8773 17.5723 16.9511C17.5248 17.0248 17.4593 17.0853 17.3819 17.1266L12.7904 19.7949C12.7573 19.8129 12.7221 19.8266 12.6856 19.8359C12.5942 19.8632 12.4968 19.8632 12.4053 19.8359C12.3603 19.823 12.3174 19.8039 12.2777 19.779L7.58139 17.0446C7.50612 17.0035 7.44231 16.9442 7.39575 16.8722C7.3492 16.8002 7.32136 16.7177 7.31478 16.6322V11.2682C7.31526 11.1542 7.35356 11.0436 7.42366 10.9537C7.49376 10.8638 7.59171 10.7997 7.70216 10.7715H7.70899ZM12.0385 18.4756V14.3011L8.34018 12.1022V16.304L12.0339 18.4756H12.0385ZM16.6345 12.166L13.0593 14.3034V18.4801L16.6345 16.3724V12.166ZM12.5329 9.21972L9.04429 11.3024L12.5489 13.4124L15.9486 11.3616L12.5329 9.21972ZM13.0616 23.0124C13.5108 23.1237 13.9212 23.3553 14.2488 23.6823C14.4843 23.9171 14.6712 24.196 14.7987 24.5031C14.9263 24.8103 14.9919 25.1396 14.9919 25.4722C14.9919 25.8047 14.9263 26.134 14.7987 26.4412C14.6712 26.7483 14.4843 27.0273 14.2488 27.262C14.014 27.4976 13.735 27.6845 13.4279 27.812C13.1207 27.9395 12.7914 28.0052 12.4589 28.0052C12.1263 28.0052 11.797 27.9395 11.4898 27.812C11.1827 27.6845 10.9037 27.4976 10.669 27.262C10.4334 27.0273 10.2465 26.7483 10.119 26.4412C9.99146 26.134 9.92582 25.8047 9.92582 25.4722C9.92582 25.1396 9.99146 24.8103 10.119 24.5031C10.2465 24.196 10.4334 23.9171 10.669 23.6823C10.994 23.3555 11.4021 23.1239 11.8493 23.0124V21.235C11.8985 21.2551 11.9487 21.2726 11.9997 21.2874L12.0863 21.3102C12.1445 21.3272 12.2039 21.3394 12.264 21.3467C12.359 21.3622 12.455 21.3705 12.5512 21.3717C12.6474 21.3706 12.7433 21.3623 12.8383 21.3467C12.9154 21.336 12.9916 21.3193 13.0661 21.2965V23.0124H13.0616ZM13.3897 24.5391C13.1415 24.2939 12.8066 24.1564 12.4577 24.1564C12.1088 24.1564 11.774 24.2939 11.5258 24.5391C11.2804 24.7877 11.1429 25.1229 11.1429 25.4722C11.1429 25.8214 11.2804 26.1567 11.5258 26.4053C11.774 26.6505 12.1088 26.788 12.4577 26.788C12.8066 26.788 13.1415 26.6505 13.3897 26.4053C13.6361 26.1572 13.7744 25.8218 13.7744 25.4722C13.7744 25.1225 13.6361 24.7871 13.3897 24.5391ZM13.3897 1.59309C13.1415 1.3479 12.8066 1.21041 12.4577 1.21041C12.1088 1.21041 11.774 1.3479 11.5258 1.59309C11.2804 1.8417 11.1429 2.17692 11.1429 2.5262C11.1429 2.87547 11.2804 3.21069 11.5258 3.4593C11.7743 3.70572 12.11 3.84411 12.46 3.84439C12.7207 3.84402 12.9754 3.76644 13.192 3.62144C13.4086 3.47645 13.5774 3.27054 13.6771 3.02969C13.7768 2.78885 13.803 2.52386 13.7522 2.26819C13.7015 2.01251 13.5761 1.7776 13.392 1.59309H13.3897ZM22.4314 17.1881C23.1033 17.1885 23.7476 17.4557 24.2225 17.931C24.458 18.1657 24.6449 18.4447 24.7725 18.7518C24.9 19.059 24.9656 19.3883 24.9656 19.7209C24.9656 20.0534 24.9 20.3827 24.7725 20.6899C24.6449 20.997 24.458 21.276 24.2225 21.5107C23.8233 21.9098 23.3024 22.1642 22.7422 22.2335C22.1821 22.3028 21.6148 22.1832 21.1304 21.8935C20.646 21.6038 20.2722 21.1606 20.0682 20.6343C19.8643 20.108 19.8419 19.5287 20.0047 18.9883L18.5213 18.1315C18.6499 18.0107 18.761 17.8727 18.8517 17.7213C18.8947 17.6477 18.9335 17.5716 18.9679 17.4935C19.0038 17.4201 19.0335 17.3439 19.0567 17.2656C19.0782 17.1976 19.0957 17.1283 19.1092 17.0583L20.6245 17.9333L20.6381 17.9173C21.1137 17.4417 21.7588 17.1745 22.4314 17.1745V17.1881ZM23.3634 18.7832C23.1786 18.5994 22.9435 18.4744 22.6878 18.4241C22.4321 18.3737 22.1671 18.4003 21.9265 18.5003C21.6858 18.6004 21.4802 18.7695 21.3355 18.9863C21.1908 19.2031 21.1136 19.4579 21.1136 19.7186C21.1136 19.9792 21.1908 20.234 21.3355 20.4508C21.4802 20.6676 21.6858 20.8368 21.9265 20.9368C22.1671 21.0369 22.4321 21.0634 22.6878 21.0131C22.9435 20.9627 23.1786 20.8378 23.3634 20.654C23.6098 20.4059 23.7482 20.0705 23.7482 19.7209C23.7482 19.3712 23.6098 19.0358 23.3634 18.7878V18.7832ZM2.53642 17.1881C3.19505 17.1879 3.8278 17.4446 4.30011 17.9036L5.85872 16.9922L5.87239 17.0469L5.90885 17.1859C5.93663 17.2777 5.97246 17.3669 6.01594 17.4525C6.04083 17.5144 6.07134 17.5739 6.10709 17.6302C6.19841 17.7797 6.3087 17.9168 6.43522 18.0381L6.44889 18.0518L4.94497 18.9199C5.12822 19.4624 5.12235 20.0509 4.92833 20.5896C4.73429 21.1282 4.36354 21.5853 3.87649 21.8863C3.38943 22.1873 2.81478 22.3145 2.2462 22.2471C1.67761 22.1798 1.14861 21.9218 0.745393 21.5153C0.390714 21.1606 0.149176 20.7087 0.051322 20.2168C-0.0465324 19.7248 0.00369187 19.2149 0.195644 18.7515C0.387595 18.2881 0.712654 17.892 1.12971 17.6133C1.54677 17.3346 2.0371 17.1859 2.5387 17.1859L2.53642 17.1881ZM3.4684 18.7832C3.22037 18.5368 2.88492 18.3985 2.53528 18.3985C2.18564 18.3985 1.8502 18.5368 1.60217 18.7832C1.35629 19.0315 1.21836 19.3668 1.21836 19.7163C1.21836 20.0658 1.35629 20.4011 1.60217 20.6494H1.59533C1.84394 20.8947 2.17917 21.0323 2.52845 21.0323C2.87773 21.0323 3.21295 20.8947 3.46156 20.6494C3.70813 20.401 3.8465 20.0652 3.8465 19.7152C3.8465 19.3652 3.70813 19.0293 3.46156 18.7809L3.4684 18.7832ZM22.4314 5.72428C22.9335 5.72319 23.4246 5.87129 23.8424 6.14979C24.2602 6.42828 24.5858 6.8246 24.7779 7.28847C24.9701 7.75233 25.0201 8.26282 24.9216 8.75515C24.8231 9.24748 24.5805 9.69945 24.2248 10.0537C23.9894 10.2891 23.7101 10.4759 23.4025 10.6033C23.095 10.7307 22.7654 10.7963 22.4326 10.7963C22.0997 10.7963 21.7701 10.7307 21.4626 10.6033C21.1551 10.4759 20.8757 10.2891 20.6404 10.0537L20.6062 10.0241L19.1 10.89C19.0582 10.6974 18.9875 10.5123 18.8904 10.3408C18.7874 10.1525 18.6551 9.98169 18.4985 9.83495L19.9978 8.96907C19.8683 8.53239 19.8595 8.06879 19.9722 7.62748C20.0849 7.18617 20.315 6.78362 20.6381 6.46256C20.873 6.22682 21.1521 6.03983 21.4595 5.91235C21.7669 5.78487 22.0964 5.7194 22.4292 5.71972L22.4314 5.72428ZM23.3634 7.31933C23.1155 7.07359 22.7805 6.93572 22.4314 6.93572C22.0824 6.93572 21.7474 7.07359 21.4995 7.31933C21.2517 7.5668 21.1124 7.90257 21.1122 8.25277C21.1119 8.60296 21.2509 8.9389 21.4983 9.18668C21.7458 9.43446 22.0816 9.57378 22.4318 9.57399C22.782 9.5742 23.1179 9.43529 23.3657 9.18782C23.4883 9.0653 23.5855 8.91983 23.6518 8.75973C23.7182 8.59962 23.7523 8.42802 23.7523 8.25471C23.7523 8.08141 23.7182 7.9098 23.6518 7.7497C23.5855 7.58959 23.4883 7.44413 23.3657 7.32161L23.3634 7.31933ZM2.53642 5.72428C2.86971 5.72265 3.19998 5.78751 3.5079 5.91506C3.81583 6.04261 4.09522 6.23029 4.32973 6.46711C4.56601 6.70109 4.75338 6.97974 4.88091 7.28683C5.00844 7.59393 5.0736 7.92333 5.07258 8.25585C5.07238 8.45693 5.04867 8.65729 5.00194 8.85286L6.5013 9.76432C6.4332 9.82291 6.36995 9.88692 6.31217 9.95572C6.18889 10.0966 6.0868 10.2548 6.00911 10.4251L5.94758 10.5618C5.92024 10.6416 5.89517 10.7191 5.87467 10.7897L4.44139 9.91926C4.40657 9.96167 4.36928 10.002 4.32973 10.04C4.1001 10.2959 3.82081 10.5023 3.50886 10.6468C3.19691 10.7912 2.85882 10.8707 2.51518 10.8804C2.17153 10.89 1.82952 10.8296 1.50995 10.7029C1.19038 10.5762 0.899939 10.3858 0.656309 10.1432C0.412678 9.90067 0.220951 9.61108 0.0927972 9.29208C-0.0353568 8.97309 -0.0972572 8.63134 -0.0891367 8.28766C-0.0810161 7.94398 -0.0030444 7.60555 0.140033 7.29296C0.28311 6.98037 0.4883 6.70016 0.743114 6.46939C0.977968 6.23366 1.25711 6.04667 1.56448 5.91919C1.87185 5.7917 2.20139 5.72624 2.53414 5.72655L2.53642 5.72428ZM3.4684 7.31933C3.21979 7.074 2.88456 6.93644 2.53528 6.93644C2.18601 6.93644 1.85078 7.074 1.60217 7.31933H1.59533C1.35 7.56794 1.21245 7.90316 1.21245 8.25243C1.21245 8.60171 1.35 8.93693 1.59533 9.18554C1.77986 9.37059 2.01518 9.49668 2.27146 9.5478C2.52774 9.59893 2.79343 9.5728 3.03484 9.47272C3.27625 9.37265 3.4825 9.20313 3.62744 8.98568C3.77237 8.76822 3.84946 8.51262 3.84893 8.2513C3.84953 8.07841 3.81603 7.90711 3.75034 7.74719C3.68465 7.58727 3.58807 7.44187 3.46612 7.31933H3.4684Z" fill="currentColor"/>
</g>
<defs>
<clipPath id="clip0_1993_9329">
<rect width="24.9673" height="28" fill="white"/>
</clipPath>
</defs>
</svg>
