<svg width="29" height="28" viewBox="0 0 29 28" fill="none" xmlns="http://www.w3.org/2000/svg">
<path d="M4 5.83333V20.7083C4 22.8024 5.69759 24.5 7.79167 24.5H21.7917C23.8857 24.5 25.5833 22.8024 25.5833 20.7083V10.7917C25.5833 8.99874 24.3389 7.49647 22.6667 7.10146V6.125C22.6667 4.67525 21.4914 3.5 20.0417 3.5H6.625C5.27384 3.5 4.16111 4.52085 4.01602 5.83333H4ZM6.625 7C6.14175 7 5.75 6.60825 5.75 6.125C5.75 5.64175 6.14175 5.25 6.625 5.25H20.0417C20.5249 5.25 20.9167 5.64175 20.9167 6.125V7H6.625ZM19.4583 15.1667H21.7917C22.2749 15.1667 22.6667 15.5584 22.6667 16.0417C22.6667 16.5249 22.2749 16.9167 21.7917 16.9167H19.4583C18.9751 16.9167 18.5833 16.5249 18.5833 16.0417C18.5833 15.5584 18.9751 15.1667 19.4583 15.1667Z" fill="currentColor"/>
</svg>
