<svg xmlns="http://www.w3.org/2000/svg" viewBox="0 0 386.62 456.58"><defs></defs><g id="Layer_2" data-name="Layer 2"><g id="Layer_1-2" data-name="Layer 1"><path fill="currentColor" d="M207.49,105.14H72.55A72.63,72.63,0,0,0,0,177.68V357.11a33.67,33.67,0,0,0,33.63,33.64A36.72,36.72,0,0,0,58,381.2c.81-.74,1.58-1.5,2.31-2.29v44c0,18.86,14.38,33.63,32.73,33.63,18,0,31.57-14.45,31.57-33.63V251a9.1,9.1,0,0,0-4.16-7.66c-6.66-4.34-11.22-8.45-13.56-12.26a38.9,38.9,0,1,1,66.28,0c-2.34,3.81-6.9,7.92-13.55,12.26a9.11,9.11,0,0,0-4.17,7.66V404.65c0,19.49,12.9,33.63,30.66,33.63A33.78,33.78,0,0,0,220,404.65v-17c.66.71,1.37,1.41,2.1,2.08a36.76,36.76,0,0,0,24.36,9.54c33.63,0,33.63-31.85,33.63-50.39V177.68A72.62,72.62,0,0,0,207.49,105.14Zm38.92,275.79c-17.56,0-17.23-21.26-17.12-30.48a13.83,13.83,0,0,0-27.65.48v53.72A15.45,15.45,0,0,1,186.1,420c-9.12,0-12.35-8.26-12.35-15.33V255.85c6.86-4.95,11.79-9.94,15-15.15a57.2,57.2,0,1,0-97.46,0c3.21,5.21,8.14,10.2,15,15.15V423c0,7.39-4.15,15.33-13.27,15.33-8.23,0-14.43-6.59-14.43-15.33V338a13.84,13.84,0,0,0-13.82-13.82h-.21A13.84,13.84,0,0,0,50.75,338v19.12c0,8-8.16,15.33-17.12,15.33A15.34,15.34,0,0,1,18.3,357.11V177.68a54.32,54.32,0,0,1,54.25-54.25H207.49a54.32,54.32,0,0,1,54.25,54.25V348.84C261.74,357.29,264,380.93,246.41,380.93Z"/><path fill="currentColor" d="M242.18,68.64a75.88,75.88,0,0,1,75.8,75.8V176a34.32,34.32,0,0,0,68.64,0V144.44A144.46,144.46,0,0,0,242.17,0a34.32,34.32,0,0,0,0,68.64Zm0-50.34A126.16,126.16,0,0,1,368.32,144.44V176a16,16,0,0,1-32,0V144.44a94.22,94.22,0,0,0-94.11-94.11,16,16,0,0,1,0-32Z"/></g></g></svg>