<svg width="96" height="96" viewBox="0 0 96 96" fill="none" xmlns="http://www.w3.org/2000/svg">
<path d="M16 44.0001H40C41.0609 44.0001 42.0783 43.5787 42.8284 42.8285C43.5786 42.0784 44 41.0609 44 40.0001V16.0001C44 14.9392 43.5786 13.9218 42.8284 13.1717C42.0783 12.4215 41.0609 12.0001 40 12.0001H16C14.9391 12.0001 13.9217 12.4215 13.1716 13.1717C12.4214 13.9218 12 14.9392 12 16.0001V40.0001C12 41.0609 12.4214 42.0784 13.1716 42.8285C13.9217 43.5787 14.9391 44.0001 16 44.0001ZM16 84.0001H40C41.0609 84.0001 42.0783 83.5787 42.8284 82.8285C43.5786 82.0784 44 81.0609 44 80.0001V56.0001C44 54.9392 43.5786 53.9218 42.8284 53.1717C42.0783 52.4215 41.0609 52.0001 40 52.0001H16C14.9391 52.0001 13.9217 52.4215 13.1716 53.1717C12.4214 53.9218 12 54.9392 12 56.0001V80.0001C12 81.0609 12.4214 82.0784 13.1716 82.8285C13.9217 83.5787 14.9391 84.0001 16 84.0001ZM56 84.0001H80C81.0609 84.0001 82.0783 83.5787 82.8284 82.8285C83.5786 82.0784 84 81.0609 84 80.0001V56.0001C84 54.9392 83.5786 53.9218 82.8284 53.1717C82.0783 52.4215 81.0609 52.0001 80 52.0001H56C54.9391 52.0001 53.9217 52.4215 53.1716 53.1717C52.4214 53.9218 52 54.9392 52 56.0001V80.0001C52 81.0609 52.4214 82.0784 53.1716 82.8285C53.9217 83.5787 54.9391 84.0001 56 84.0001ZM85.172 25.1721L70.828 10.8281C70.4569 10.4563 70.016 10.1613 69.5308 9.9601C69.0455 9.75886 68.5253 9.65527 68 9.65527C67.4747 9.65527 66.9545 9.75886 66.4692 9.9601C65.984 10.1613 65.5431 10.4563 65.172 10.8281L50.828 25.1721C50.4562 25.5432 50.1613 25.984 49.96 26.4693C49.7588 26.9546 49.6552 27.4747 49.6552 28.0001C49.6552 28.5254 49.7588 29.0456 49.96 29.5309C50.1613 30.0161 50.4562 30.4569 50.828 30.8281L65.172 45.1721C65.5431 45.5439 65.984 45.8388 66.4692 46.0401C66.9545 46.2413 67.4747 46.3449 68 46.3449C68.5253 46.3449 69.0455 46.2413 69.5308 46.0401C70.016 45.8388 70.4569 45.5439 70.828 45.1721L85.172 30.8281C85.5438 30.4569 85.8387 30.0161 86.04 29.5309C86.2412 29.0456 86.3448 28.5254 86.3448 28.0001C86.3448 27.4747 86.2412 26.9546 86.04 26.4693C85.8387 25.984 85.5438 25.5432 85.172 25.1721Z" fill="url(#paint0_linear_588_2266)"/>
<defs>
<linearGradient id="paint0_linear_588_2266" x1="15.5412" y1="50.8105" x2="81.6246" y2="50.139" gradientUnits="userSpaceOnUse">
<stop stop-color="#E27469"/>
<stop offset="1" stop-color="#D74634"/>
</linearGradient>
</defs>
</svg>
