<svg width="120" height="96" viewBox="0 0 120 96" fill="none" xmlns="http://www.w3.org/2000/svg">
<path d="M0 71.981L12 71.9886C15.3281 71.9886 18 69.3092 18 65.983V24.056H0V71.981ZM9 60.0185C10.6406 60.0185 12 61.3531 12 63.0166C12 64.6558 10.6406 66.0148 9 66.0148C7.35938 66.0148 6 64.6498 6 63.0185C6 61.3498 7.35938 60.0185 9 60.0185ZM65.4 11.9998C63.9111 11.9998 62.4637 12.5565 61.365 13.5613L42.9187 30.431C42.9 30.4685 42.9 30.506 42.8625 30.506C39.75 33.431 39.8063 38.0998 42.4688 41.006C44.8594 43.4623 49.8525 44.3098 52.9931 41.5216C53.025 41.4935 53.0438 41.4935 53.0625 41.4748L68.04 27.7685C69.2588 26.6677 71.1806 26.738 72.2812 27.956C73.4062 29.174 73.3125 31.0723 72.0938 32.1973L67.1963 36.6729L94.5 58.8185C95.0391 59.2865 95.5312 59.7553 95.9766 60.2701V23.831C88.2928 16.151 77.8866 11.8535 67.0266 11.8535L65.4 11.9998ZM62.7375 40.7623L57.1125 45.9166C51.5344 50.9998 43.0031 50.5085 38.025 45.0971C33 39.5998 33.3937 31.0685 38.8688 26.0435L54.2063 11.9998H52.9688C42.1312 11.9998 31.7062 16.3273 24.0375 23.981L24 65.9623L27.4219 65.9692L44.3906 81.3104C49.5469 85.5048 57.0938 84.7079 61.2656 79.5768L64.6631 82.4343C67.6406 84.7031 72.0469 84.4031 74.4844 81.4272L80.3681 74.1897L81.3757 75.0331C83.9539 77.0956 87.7282 76.721 89.8132 74.1429L91.6016 71.9341C93.6866 69.356 93.2959 65.6004 90.7215 63.5098L62.7375 40.7623ZM102 24.0748V65.9998C102 69.3035 104.672 72.0091 107.831 72.0091L120 71.9998V24.0185L102 24.0748ZM111 65.9998C109.359 65.9998 108 64.6411 108 63.0016C108 61.3376 109.359 60.0035 111 60.0035C112.641 60.0035 114 61.3498 114 63.0185C114 64.6498 112.65 65.9998 111 65.9998Z" fill="url(#paint0_linear_588_2282)"/>
<defs>
<linearGradient id="paint0_linear_588_2282" x1="5.71579" y1="51.7945" x2="112.362" y2="49.9923" gradientUnits="userSpaceOnUse">
<stop stop-color="#E27469"/>
<stop offset="1" stop-color="#D74634"/>
</linearGradient>
</defs>
</svg>
