<svg  viewBox="0 0 200 399" fill="none" xmlns="http://www.w3.org/2000/svg">
<path d="M36.44 55V49.84H46.08V79H40.32V55H36.44ZM51.6122 64.04C51.6122 59.4267 52.4389 55.8133 54.0922 53.2C55.7722 50.5867 58.5455 49.28 62.4122 49.28C66.2789 49.28 69.0389 50.5867 70.6922 53.2C72.3722 55.8133 73.2122 59.4267 73.2122 64.04C73.2122 68.68 72.3722 72.32 70.6922 74.96C69.0389 77.6 66.2789 78.92 62.4122 78.92C58.5455 78.92 55.7722 77.6 54.0922 74.96C52.4389 72.32 51.6122 68.68 51.6122 64.04ZM67.6922 64.04C67.6922 62.0667 67.5589 60.4133 67.2922 59.08C67.0522 57.72 66.5455 56.6133 65.7722 55.76C65.0255 54.9067 63.9055 54.48 62.4122 54.48C60.9189 54.48 59.7855 54.9067 59.0122 55.76C58.2655 56.6133 57.7589 57.72 57.4922 59.08C57.2522 60.4133 57.1322 62.0667 57.1322 64.04C57.1322 66.0667 57.2522 67.7733 57.4922 69.16C57.7322 70.52 58.2389 71.6267 59.0122 72.48C59.7855 73.3067 60.9189 73.72 62.4122 73.72C63.9055 73.72 65.0389 73.3067 65.8122 72.48C66.5855 71.6267 67.0922 70.52 67.3322 69.16C67.5722 67.7733 67.6922 66.0667 67.6922 64.04ZM77.4716 64.04C77.4716 59.4267 78.2982 55.8133 79.9516 53.2C81.6316 50.5867 84.4049 49.28 88.2716 49.28C92.1382 49.28 94.8982 50.5867 96.5516 53.2C98.2316 55.8133 99.0716 59.4267 99.0716 64.04C99.0716 68.68 98.2316 72.32 96.5516 74.96C94.8982 77.6 92.1382 78.92 88.2716 78.92C84.4049 78.92 81.6316 77.6 79.9516 74.96C78.2982 72.32 77.4716 68.68 77.4716 64.04ZM93.5516 64.04C93.5516 62.0667 93.4182 60.4133 93.1516 59.08C92.9116 57.72 92.4049 56.6133 91.6316 55.76C90.8849 54.9067 89.7649 54.48 88.2716 54.48C86.7782 54.48 85.6449 54.9067 84.8716 55.76C84.1249 56.6133 83.6182 57.72 83.3516 59.08C83.1116 60.4133 82.9916 62.0667 82.9916 64.04C82.9916 66.0667 83.1116 67.7733 83.3516 69.16C83.5916 70.52 84.0982 71.6267 84.8716 72.48C85.6449 73.3067 86.7782 73.72 88.2716 73.72C89.7649 73.72 90.8982 73.3067 91.6716 72.48C92.4449 71.6267 92.9516 70.52 93.1916 69.16C93.4316 67.7733 93.5516 66.0667 93.5516 64.04ZM102.691 57C102.691 54.9733 103.278 53.3867 104.451 52.24C105.651 51.0933 107.184 50.52 109.051 50.52C110.918 50.52 112.438 51.0933 113.611 52.24C114.811 53.3867 115.411 54.9733 115.411 57C115.411 59.0533 114.811 60.6533 113.611 61.8C112.438 62.9467 110.918 63.52 109.051 63.52C107.184 63.52 105.651 62.9467 104.451 61.8C103.278 60.6533 102.691 59.0533 102.691 57ZM128.371 51L112.651 79H107.211L122.891 51H128.371ZM109.011 53.88C107.544 53.88 106.811 54.92 106.811 57C106.811 59.1067 107.544 60.16 109.011 60.16C109.731 60.16 110.291 59.9067 110.691 59.4C111.091 58.8667 111.291 58.0667 111.291 57C111.291 54.92 110.531 53.88 109.011 53.88ZM120.251 72.96C120.251 70.9067 120.838 69.32 122.011 68.2C123.211 67.0533 124.744 66.48 126.611 66.48C128.478 66.48 129.984 67.0533 131.131 68.2C132.304 69.32 132.891 70.9067 132.891 72.96C132.891 75.0133 132.304 76.6133 131.131 77.76C129.984 78.9067 128.478 79.48 126.611 79.48C124.718 79.48 123.184 78.9067 122.011 77.76C120.838 76.6133 120.251 75.0133 120.251 72.96ZM126.571 69.84C125.051 69.84 124.291 70.88 124.291 72.96C124.291 75.0667 125.051 76.12 126.571 76.12C128.064 76.12 128.811 75.0667 128.811 72.96C128.811 70.88 128.064 69.84 126.571 69.84Z" fill="url(#paint0_linear_563_2020)"/>
<path d="M36.44 262V256.84H46.08V286H40.32V262H36.44ZM50.9322 262V256.84H60.5722V286H54.8122V262H50.9322ZM66.1044 271.04C66.1044 266.427 66.931 262.813 68.5844 260.2C70.2644 257.587 73.0377 256.28 76.9044 256.28C80.771 256.28 83.531 257.587 85.1844 260.2C86.8644 262.813 87.7044 266.427 87.7044 271.04C87.7044 275.68 86.8644 279.32 85.1844 281.96C83.531 284.6 80.771 285.92 76.9044 285.92C73.0377 285.92 70.2644 284.6 68.5844 281.96C66.931 279.32 66.1044 275.68 66.1044 271.04ZM82.1844 271.04C82.1844 269.067 82.051 267.413 81.7844 266.08C81.5444 264.72 81.0377 263.613 80.2644 262.76C79.5177 261.907 78.3977 261.48 76.9044 261.48C75.411 261.48 74.2777 261.907 73.5044 262.76C72.7577 263.613 72.251 264.72 71.9844 266.08C71.7444 267.413 71.6244 269.067 71.6244 271.04C71.6244 273.067 71.7444 274.773 71.9844 276.16C72.2244 277.52 72.731 278.627 73.5044 279.48C74.2777 280.307 75.411 280.72 76.9044 280.72C78.3977 280.72 79.531 280.307 80.3044 279.48C81.0777 278.627 81.5844 277.52 81.8244 276.16C82.0644 274.773 82.1844 273.067 82.1844 271.04ZM91.3238 264C91.3238 261.973 91.9104 260.387 93.0838 259.24C94.2838 258.093 95.8171 257.52 97.6838 257.52C99.5504 257.52 101.07 258.093 102.244 259.24C103.444 260.387 104.044 261.973 104.044 264C104.044 266.053 103.444 267.653 102.244 268.8C101.07 269.947 99.5504 270.52 97.6838 270.52C95.8171 270.52 94.2838 269.947 93.0838 268.8C91.9104 267.653 91.3238 266.053 91.3238 264ZM117.004 258L101.284 286H95.8438L111.524 258H117.004ZM97.6438 260.88C96.1771 260.88 95.4438 261.92 95.4438 264C95.4438 266.107 96.1771 267.16 97.6438 267.16C98.3638 267.16 98.9238 266.907 99.3238 266.4C99.7238 265.867 99.9238 265.067 99.9238 264C99.9238 261.92 99.1638 260.88 97.6438 260.88ZM108.884 279.96C108.884 277.907 109.47 276.32 110.644 275.2C111.844 274.053 113.377 273.48 115.244 273.48C117.11 273.48 118.617 274.053 119.764 275.2C120.937 276.32 121.524 277.907 121.524 279.96C121.524 282.013 120.937 283.613 119.764 284.76C118.617 285.907 117.11 286.48 115.244 286.48C113.35 286.48 111.817 285.907 110.644 284.76C109.47 283.613 108.884 282.013 108.884 279.96ZM115.204 276.84C113.684 276.84 112.924 277.88 112.924 279.96C112.924 282.067 113.684 283.12 115.204 283.12C116.697 283.12 117.444 282.067 117.444 279.96C117.444 277.88 116.697 276.84 115.204 276.84Z" fill="url(#paint1_linear_563_2020)"/>
<path d="M42.44 144.168C41.272 144.168 40.216 143.968 39.272 143.568C38.344 143.168 37.608 142.592 37.064 141.84C36.52 141.088 36.24 140.2 36.224 139.176H39.824C39.872 139.864 40.112 140.408 40.544 140.808C40.992 141.208 41.6 141.408 42.368 141.408C43.152 141.408 43.768 141.224 44.216 140.856C44.664 140.472 44.888 139.976 44.888 139.368C44.888 138.872 44.736 138.464 44.432 138.144C44.128 137.824 43.744 137.576 43.28 137.4C42.832 137.208 42.208 137 41.408 136.776C40.32 136.456 39.432 136.144 38.744 135.84C38.072 135.52 37.488 135.048 36.992 134.424C36.512 133.784 36.272 132.936 36.272 131.88C36.272 130.888 36.52 130.024 37.016 129.288C37.512 128.552 38.208 127.992 39.104 127.608C40 127.208 41.024 127.008 42.176 127.008C43.904 127.008 45.304 127.432 46.376 128.28C47.464 129.112 48.064 130.28 48.176 131.784H44.48C44.448 131.208 44.2 130.736 43.736 130.368C43.288 129.984 42.688 129.792 41.936 129.792C41.28 129.792 40.752 129.96 40.352 130.296C39.968 130.632 39.776 131.12 39.776 131.76C39.776 132.208 39.92 132.584 40.208 132.888C40.512 133.176 40.88 133.416 41.312 133.608C41.76 133.784 42.384 133.992 43.184 134.232C44.272 134.552 45.16 134.872 45.848 135.192C46.536 135.512 47.128 135.992 47.624 136.632C48.12 137.272 48.368 138.112 48.368 139.152C48.368 140.048 48.136 140.88 47.672 141.648C47.208 142.416 46.528 143.032 45.632 143.496C44.736 143.944 43.672 144.168 42.44 144.168ZM63.641 137.064C63.641 137.544 63.609 137.976 63.545 138.36H53.825C53.905 139.32 54.241 140.072 54.833 140.616C55.425 141.16 56.153 141.432 57.017 141.432C58.265 141.432 59.153 140.896 59.681 139.824H63.305C62.921 141.104 62.185 142.16 61.097 142.992C60.009 143.808 58.673 144.216 57.089 144.216C55.809 144.216 54.657 143.936 53.633 143.376C52.625 142.8 51.833 141.992 51.257 140.952C50.697 139.912 50.417 138.712 50.417 137.352C50.417 135.976 50.697 134.768 51.257 133.728C51.817 132.688 52.601 131.888 53.609 131.328C54.617 130.768 55.777 130.488 57.089 130.488C58.353 130.488 59.481 130.76 60.473 131.304C61.481 131.848 62.257 132.624 62.801 133.632C63.361 134.624 63.641 135.768 63.641 137.064ZM60.161 136.104C60.145 135.24 59.833 134.552 59.225 134.04C58.617 133.512 57.873 133.248 56.993 133.248C56.161 133.248 55.457 133.504 54.881 134.016C54.321 134.512 53.977 135.208 53.849 136.104H60.161ZM65.2295 137.352C65.2295 135.976 65.5095 134.776 66.0695 133.752C66.6295 132.712 67.4055 131.912 68.3975 131.352C69.3895 130.776 70.5255 130.488 71.8055 130.488C73.4535 130.488 74.8135 130.904 75.8855 131.736C76.9735 132.552 77.7015 133.704 78.0695 135.192H74.4455C74.2535 134.616 73.9255 134.168 73.4615 133.848C73.0135 133.512 72.4535 133.344 71.7815 133.344C70.8215 133.344 70.0615 133.696 69.5015 134.4C68.9415 135.088 68.6615 136.072 68.6615 137.352C68.6615 138.616 68.9415 139.6 69.5015 140.304C70.0615 140.992 70.8215 141.336 71.7815 141.336C73.1415 141.336 74.0295 140.728 74.4455 139.512H78.0695C77.7015 140.952 76.9735 142.096 75.8855 142.944C74.7975 143.792 73.4375 144.216 71.8055 144.216C70.5255 144.216 69.3895 143.936 68.3975 143.376C67.4055 142.8 66.6295 142 66.0695 140.976C65.5095 139.936 65.2295 138.728 65.2295 137.352ZM93.083 130.704V144H89.699V142.32C89.267 142.896 88.699 143.352 87.995 143.688C87.307 144.008 86.555 144.168 85.739 144.168C84.699 144.168 83.779 143.952 82.979 143.52C82.179 143.072 81.547 142.424 81.083 141.576C80.635 140.712 80.411 139.688 80.411 138.504V130.704H83.771V138.024C83.771 139.08 84.035 139.896 84.563 140.472C85.091 141.032 85.811 141.312 86.723 141.312C87.651 141.312 88.379 141.032 88.907 140.472C89.435 139.896 89.699 139.08 89.699 138.024V130.704H93.083ZM99.7582 132.768C100.19 132.064 100.75 131.512 101.438 131.112C102.142 130.712 102.942 130.512 103.838 130.512V134.04H102.95C101.894 134.04 101.094 134.288 100.55 134.784C100.022 135.28 99.7582 136.144 99.7582 137.376V144H96.3982V130.704H99.7582V132.768ZM118.461 137.064C118.461 137.544 118.429 137.976 118.365 138.36H108.645C108.725 139.32 109.061 140.072 109.653 140.616C110.245 141.16 110.973 141.432 111.837 141.432C113.085 141.432 113.973 140.896 114.501 139.824H118.125C117.741 141.104 117.005 142.16 115.917 142.992C114.829 143.808 113.493 144.216 111.909 144.216C110.629 144.216 109.477 143.936 108.453 143.376C107.445 142.8 106.653 141.992 106.077 140.952C105.517 139.912 105.237 138.712 105.237 137.352C105.237 135.976 105.517 134.768 106.077 133.728C106.637 132.688 107.421 131.888 108.429 131.328C109.437 130.768 110.597 130.488 111.909 130.488C113.173 130.488 114.301 130.76 115.293 131.304C116.301 131.848 117.077 132.624 117.621 133.632C118.181 134.624 118.461 135.768 118.461 137.064ZM114.981 136.104C114.965 135.24 114.653 134.552 114.045 134.04C113.437 133.512 112.693 133.248 111.813 133.248C110.981 133.248 110.277 133.504 109.701 134.016C109.141 134.512 108.797 135.208 108.669 136.104H114.981Z" fill="url(#paint2_linear_563_2020)"/>
<path d="M45.296 351L41.6 344.472H40.016V351H36.656V334.248H42.944C44.24 334.248 45.344 334.48 46.256 334.944C47.168 335.392 47.848 336.008 48.296 336.792C48.76 337.56 48.992 338.424 48.992 339.384C48.992 340.488 48.672 341.488 48.032 342.384C47.392 343.264 46.44 343.872 45.176 344.208L49.184 351H45.296ZM40.016 341.952H42.824C43.736 341.952 44.416 341.736 44.864 341.304C45.312 340.856 45.536 340.24 45.536 339.456C45.536 338.688 45.312 338.096 44.864 337.68C44.416 337.248 43.736 337.032 42.824 337.032H40.016V341.952ZM64.391 344.064C64.391 344.544 64.359 344.976 64.295 345.36H54.575C54.655 346.32 54.991 347.072 55.583 347.616C56.175 348.16 56.903 348.432 57.767 348.432C59.015 348.432 59.903 347.896 60.431 346.824H64.055C63.671 348.104 62.935 349.16 61.847 349.992C60.759 350.808 59.423 351.216 57.839 351.216C56.559 351.216 55.407 350.936 54.383 350.376C53.375 349.8 52.583 348.992 52.007 347.952C51.447 346.912 51.167 345.712 51.167 344.352C51.167 342.976 51.447 341.768 52.007 340.728C52.567 339.688 53.351 338.888 54.359 338.328C55.367 337.768 56.527 337.488 57.839 337.488C59.103 337.488 60.231 337.76 61.223 338.304C62.231 338.848 63.007 339.624 63.551 340.632C64.111 341.624 64.391 342.768 64.391 344.064ZM60.911 343.104C60.895 342.24 60.583 341.552 59.975 341.04C59.367 340.512 58.623 340.248 57.743 340.248C56.911 340.248 56.207 340.504 55.631 341.016C55.071 341.512 54.727 342.208 54.599 343.104H60.911ZM70.2035 333.24V351H66.8435V333.24H70.2035ZM75.2272 336.12C74.6352 336.12 74.1392 335.936 73.7392 335.568C73.3552 335.184 73.1632 334.712 73.1632 334.152C73.1632 333.592 73.3552 333.128 73.7392 332.76C74.1392 332.376 74.6352 332.184 75.2272 332.184C75.8192 332.184 76.3072 332.376 76.6912 332.76C77.0912 333.128 77.2912 333.592 77.2912 334.152C77.2912 334.712 77.0912 335.184 76.6912 335.568C76.3072 335.936 75.8192 336.12 75.2272 336.12ZM76.8832 337.704V351H73.5232V337.704H76.8832ZM79.3389 344.304C79.3389 342.96 79.6029 341.768 80.1309 340.728C80.6749 339.688 81.4029 338.888 82.3149 338.328C83.2429 337.768 84.2749 337.488 85.4109 337.488C86.4029 337.488 87.2669 337.688 88.0029 338.088C88.7549 338.488 89.3549 338.992 89.8029 339.6V337.704H93.1869V351H89.8029V349.056C89.3709 349.68 88.7709 350.2 88.0029 350.616C87.2509 351.016 86.3789 351.216 85.3869 351.216C84.2669 351.216 83.2429 350.928 82.3149 350.352C81.4029 349.776 80.6749 348.968 80.1309 347.928C79.6029 346.872 79.3389 345.664 79.3389 344.304ZM89.8029 344.352C89.8029 343.536 89.6429 342.84 89.3229 342.264C89.0029 341.672 88.5709 341.224 88.0269 340.92C87.4829 340.6 86.8989 340.44 86.2749 340.44C85.6509 340.44 85.0749 340.592 84.5469 340.896C84.0189 341.2 83.5869 341.648 83.2509 342.24C82.9309 342.816 82.7709 343.504 82.7709 344.304C82.7709 345.104 82.9309 345.808 83.2509 346.416C83.5869 347.008 84.0189 347.464 84.5469 347.784C85.0909 348.104 85.6669 348.264 86.2749 348.264C86.8989 348.264 87.4829 348.112 88.0269 347.808C88.5709 347.488 89.0029 347.04 89.3229 346.464C89.6429 345.872 89.8029 345.168 89.8029 344.352ZM99.8285 339.648C100.261 339.008 100.853 338.488 101.605 338.088C102.373 337.688 103.245 337.488 104.221 337.488C105.357 337.488 106.381 337.768 107.293 338.328C108.221 338.888 108.949 339.688 109.477 340.728C110.021 341.752 110.293 342.944 110.293 344.304C110.293 345.664 110.021 346.872 109.477 347.928C108.949 348.968 108.221 349.776 107.293 350.352C106.381 350.928 105.357 351.216 104.221 351.216C103.229 351.216 102.357 351.024 101.605 350.64C100.869 350.24 100.277 349.728 99.8285 349.104V351H96.4685V333.24H99.8285V339.648ZM106.861 344.304C106.861 343.504 106.693 342.816 106.357 342.24C106.037 341.648 105.605 341.2 105.061 340.896C104.533 340.592 103.957 340.44 103.333 340.44C102.725 340.44 102.149 340.6 101.605 340.92C101.077 341.224 100.645 341.672 100.309 342.264C99.9885 342.856 99.8285 343.552 99.8285 344.352C99.8285 345.152 99.9885 345.848 100.309 346.44C100.645 347.032 101.077 347.488 101.605 347.808C102.149 348.112 102.725 348.264 103.333 348.264C103.957 348.264 104.533 348.104 105.061 347.784C105.605 347.464 106.037 347.008 106.357 346.416C106.693 345.824 106.861 345.12 106.861 344.304ZM116.094 333.24V351H112.734V333.24H116.094ZM131.774 344.064C131.774 344.544 131.742 344.976 131.678 345.36H121.958C122.038 346.32 122.374 347.072 122.966 347.616C123.558 348.16 124.286 348.432 125.15 348.432C126.398 348.432 127.286 347.896 127.814 346.824H131.438C131.054 348.104 130.318 349.16 129.23 349.992C128.142 350.808 126.806 351.216 125.222 351.216C123.942 351.216 122.79 350.936 121.766 350.376C120.758 349.8 119.966 348.992 119.39 347.952C118.83 346.912 118.55 345.712 118.55 344.352C118.55 342.976 118.83 341.768 119.39 340.728C119.95 339.688 120.734 338.888 121.742 338.328C122.75 337.768 123.91 337.488 125.222 337.488C126.486 337.488 127.614 337.76 128.606 338.304C129.614 338.848 130.39 339.624 130.934 340.632C131.494 341.624 131.774 342.768 131.774 344.064ZM128.294 343.104C128.278 342.24 127.966 341.552 127.358 341.04C126.75 340.512 126.006 340.248 125.126 340.248C124.294 340.248 123.59 340.504 123.014 341.016C122.454 341.512 122.11 342.208 121.982 343.104H128.294Z" fill="url(#paint3_linear_563_2020)"/>
<rect x="35" y="96" width="145" height="15" rx="7.5" fill="#979EB5"/>
<rect x="35" y="303" width="145" height="15" rx="7.5" fill="#979EB5"/>
<rect x="35" y="96" width="120" height="15" rx="7.5" fill="url(#paint4_linear_563_2020)"/>
<rect x="35" y="303" width="94" height="15" rx="7.5" fill="url(#paint5_linear_563_2020)"/>
<circle cx="100" cy="100" r="99.5" stroke="url(#paint6_linear_563_2020)" stroke-dasharray="5 5"/>
<circle cx="100" cy="299" r="99.5" stroke="url(#paint7_linear_563_2020)" stroke-dasharray="5 5"/>
<defs>
<linearGradient id="paint0_linear_563_2020" x1="39.7632" y1="68.2143" x2="128.635" y2="66.7094" gradientUnits="userSpaceOnUse">
<stop stop-color="#E27469"/>
<stop offset="1" stop-color="#D74634"/>
</linearGradient>
<linearGradient id="paint1_linear_563_2020" x1="39.2392" y1="275.214" x2="118.34" y2="274.022" gradientUnits="userSpaceOnUse">
<stop stop-color="#E27469"/>
<stop offset="1" stop-color="#D74634"/>
</linearGradient>
<linearGradient id="paint2_linear_563_2020" x1="39.0487" y1="137.929" x2="114.568" y2="136.117" gradientUnits="userSpaceOnUse">
<stop stop-color="#E27469"/>
<stop offset="1" stop-color="#D74634"/>
</linearGradient>
<linearGradient id="paint3_linear_563_2020" x1="39.6679" y1="344.929" x2="126.72" y2="342.521" gradientUnits="userSpaceOnUse">
<stop stop-color="#E27469"/>
<stop offset="1" stop-color="#D74634"/>
</linearGradient>
<linearGradient id="paint4_linear_563_2020" x1="40.7158" y1="104.304" x2="146.692" y2="95.6895" gradientUnits="userSpaceOnUse">
<stop stop-color="#E27469"/>
<stop offset="1" stop-color="#D74634"/>
</linearGradient>
<linearGradient id="paint5_linear_563_2020" x1="39.4774" y1="311.304" x2="122.703" y2="306.004" gradientUnits="userSpaceOnUse">
<stop stop-color="#E27469"/>
<stop offset="1" stop-color="#D74634"/>
</linearGradient>
<linearGradient id="paint6_linear_563_2020" x1="100" y1="100" x2="79.2108" y2="4.52682" gradientUnits="userSpaceOnUse">
<stop stop-color="#E27469" stop-opacity="0"/>
<stop offset="1" stop-color="#D74634"/>
</linearGradient>
<linearGradient id="paint7_linear_563_2020" x1="99.9999" y1="299" x2="120.789" y2="394.473" gradientUnits="userSpaceOnUse">
<stop stop-color="#E27469" stop-opacity="0"/>
<stop offset="1" stop-color="#D74634"/>
</linearGradient>
</defs>
</svg>
