<svg viewBox="0 0 90 90" fill="none" xmlns="http://www.w3.org/2000/svg">
<path d="M41.25 7.5C30.8947 7.5 22.5 15.8947 22.5 26.25C22.5 36.6053 30.8947 45 41.25 45C51.6053 45 60 36.6053 60 26.25C60 15.8947 51.6053 7.5 41.25 7.5ZM27.1875 26.25C27.1875 18.4835 33.4835 12.1875 41.25 12.1875C49.0165 12.1875 55.3125 18.4835 55.3125 26.25C55.3125 34.0165 49.0165 40.3125 41.25 40.3125C33.4835 40.3125 27.1875 34.0165 27.1875 26.25ZM19.2185 52.4999C14.8186 52.4999 11.25 56.0649 11.25 60.4667L11.25 61.875C11.25 68.9166 14.8906 74.1879 20.4753 77.5878C25.967 80.9312 33.3489 82.5 41.25 82.5C43.4465 82.5 45.603 82.3787 47.6898 82.1318C46.4544 80.7902 45.3676 79.3097 44.4556 77.7162C43.4094 77.7802 42.3398 77.8125 41.25 77.8125C33.877 77.8125 27.4307 76.3344 22.9128 73.584C18.4879 70.8901 15.9375 67.0208 15.9375 61.875L15.9375 60.4667C15.9375 58.6556 17.4055 57.1874 19.2185 57.1874H42.7499C43.3603 55.5331 44.1451 53.9632 45.0819 52.4999H19.2185ZM45 65.625C45 77.0159 54.2341 86.25 65.625 86.25C77.0159 86.25 86.25 77.0159 86.25 65.625C86.25 54.2341 77.0159 45 65.625 45C54.2341 45 45 54.2341 45 65.625ZM61.2134 52.3261C63.0447 51.6726 64.9983 51.4341 66.933 51.6278C68.8677 51.8216 70.7352 52.4429 72.4004 53.4466C73.3532 54.0209 74.2261 54.7122 75 55.502V54.375C75 53.3395 75.8395 52.5 76.875 52.5C77.9105 52.5 78.75 53.3395 78.75 54.375V60C78.75 61.0355 77.9105 61.875 76.875 61.875H71.25C70.2145 61.875 69.375 61.0355 69.375 60C69.375 58.9645 70.2145 58.125 71.25 58.125H72.32C71.7676 57.5614 71.1445 57.0681 70.4646 56.6583C69.2751 55.9413 67.9412 55.4976 66.5592 55.3592C65.1773 55.2208 63.7819 55.3911 62.4739 55.8579C61.1658 56.3247 59.9778 57.0763 58.9958 58.0584C58.2635 58.7906 57.0763 58.7906 56.3441 58.0584C55.6119 57.3261 55.6119 56.139 56.3441 55.4067C57.719 54.0318 59.3822 52.9796 61.2134 52.3261ZM70.0368 78.9239C68.2055 79.5774 66.2519 79.8159 64.3172 79.6221C62.3825 79.4284 60.5151 78.8072 58.8498 77.8034C57.8971 77.2291 57.0241 76.5378 56.2502 75.748V76.875C56.2502 77.9105 55.4108 78.75 54.3752 78.75C53.3397 78.75 52.5002 77.9105 52.5002 76.875V71.25C52.5002 70.2145 53.3397 69.375 54.3752 69.375H60.0002C61.0358 69.375 61.8752 70.2145 61.8752 71.25C61.8752 72.2855 61.0358 73.125 60.0002 73.125H58.9302C59.4827 73.6886 60.1057 74.1819 60.7857 74.5917C61.9751 75.3087 63.3091 75.7524 64.691 75.8908C66.0729 76.0292 67.4683 75.8589 68.7764 75.3921C70.0844 74.9253 71.2724 74.1737 72.2545 73.1916C72.9867 72.4594 74.1739 72.4594 74.9061 73.1916C75.6383 73.9239 75.6383 75.111 74.9061 75.8433C73.5312 77.2182 71.868 78.2704 70.0368 78.9239Z" fill="url(#paint0_linear_588_2378)"/>
<defs>
<linearGradient id="paint0_linear_588_2378" x1="14.8224" y1="51.0938" x2="81.4889" y2="50.4487" gradientUnits="userSpaceOnUse">
<stop stop-color="#E27469"/>
<stop offset="1" stop-color="#D74634"/>
</linearGradient>
</defs>
</svg>
