<svg width="90" height="90" viewBox="0 0 90 90" fill="none" xmlns="http://www.w3.org/2000/svg">
<path d="M37.9105 58.122C38.0904 56.1904 38.6047 54.2841 39.4534 52.497H15.9489C11.2913 52.497 7.51562 56.2727 7.51562 60.9303V63.0966C7.51562 66.4445 8.71007 69.6826 10.8842 72.2285C16.7578 79.1069 25.7054 82.5013 37.5023 82.5013C42.8001 82.5013 47.5243 81.8168 51.6546 80.4397L47.0984 75.8834C44.2369 76.5441 41.0412 76.8763 37.5023 76.8763C27.2337 76.8763 19.8617 74.0796 15.1618 68.5757C13.8573 67.0482 13.1406 65.1053 13.1406 63.0966V60.9303C13.1406 59.3793 14.3979 58.122 15.9489 58.122H37.9105ZM37.5023 7.51465C47.8577 7.51465 56.2523 15.9093 56.2523 26.2646C56.2523 36.62 47.8577 45.0146 37.5023 45.0146C27.147 45.0146 18.7523 36.62 18.7523 26.2646C18.7523 15.9093 27.147 7.51465 37.5023 7.51465ZM37.5023 13.1396C30.2536 13.1396 24.3773 19.0159 24.3773 26.2646C24.3773 33.5134 30.2536 39.3896 37.5023 39.3896C44.7511 39.3896 50.6273 33.5134 50.6273 26.2646C50.6273 19.0159 44.7511 13.1396 37.5023 13.1396ZM63.9156 86.2351C63.1956 86.2352 62.4758 85.9605 61.9267 85.4114L45.3956 68.8803C40.3187 63.8034 40.3187 55.5721 45.3956 50.4952C50.4725 45.4183 58.7037 45.4183 63.7806 50.4952L63.9156 50.6302L64.0506 50.4952C69.1275 45.4183 77.3588 45.4183 82.4357 50.4952C87.5126 55.5721 87.5126 63.8034 82.4357 68.8803L65.9046 85.4114C65.3555 85.9605 64.6356 86.2352 63.9156 86.2351Z" fill="url(#paint0_linear_588_2383)"/>
<defs>
<linearGradient id="paint0_linear_588_2383" x1="11.2656" y1="51.0921" x2="81.2449" y2="50.381" gradientUnits="userSpaceOnUse">
<stop stop-color="#E27469"/>
<stop offset="1" stop-color="#D74634"/>
</linearGradient>
</defs>
</svg>
