<svg width="91" height="91" viewBox="0 0 91 91" fill="none" xmlns="http://www.w3.org/2000/svg">
<path d="M76.4618 11.3462C78.0258 11.3462 79.2937 12.6162 79.2937 14.1828L79.2937 33.0929C79.2937 34.6595 78.0259 35.9294 76.4618 35.9294C74.8978 35.9294 73.6299 34.6595 73.6299 33.0929L73.6299 21.0308L51.0892 43.6083C49.9833 44.7161 48.1902 44.7161 47.0843 43.6083L38.7031 35.2134L16.1625 57.791C15.0566 58.8988 13.2635 58.8988 12.1576 57.791C11.0516 56.6833 11.0516 54.8873 12.1576 53.7796L36.7007 29.1962C37.8066 28.0885 39.5997 28.0885 40.7056 29.1962L49.0868 37.5911L69.625 17.0193L57.5825 17.0193C56.0185 17.0193 54.7506 15.7493 54.7506 14.1827C54.7506 12.6161 56.0185 11.3462 57.5825 11.3462L76.4618 11.3462ZM86.8454 66.1859C86.8454 77.6742 77.5476 86.9872 66.0781 86.9872C54.6087 86.9872 45.3109 77.6742 45.3109 66.1859C45.3109 54.6977 54.6087 45.3847 66.0781 45.3847C77.5476 45.3847 86.8454 54.6977 86.8454 66.1859ZM78.7407 57.2847C78.0034 56.5462 76.808 56.5462 76.0707 57.2847L62.3023 71.0757L56.0855 64.8488C55.3482 64.1103 54.1529 64.1103 53.4156 64.8488C52.6783 65.5873 52.6783 66.7846 53.4156 67.5231L60.9673 75.0872C61.7046 75.8257 62.8999 75.8257 63.6372 75.0872L78.7407 59.959C79.478 59.2205 79.478 58.0232 78.7407 57.2847Z" fill="url(#paint0_linear_588_2388)"/>
<defs>
<linearGradient id="paint0_linear_588_2388" x1="14.9251" y1="53.219" x2="82.0508" y2="52.538" gradientUnits="userSpaceOnUse">
<stop stop-color="#E27469"/>
<stop offset="1" stop-color="#D74634"/>
</linearGradient>
</defs>
</svg>
