<svg width="1516" height="338" viewBox="0 0 1516 338" fill="none" xmlns="http://www.w3.org/2000/svg"><g clip-path="url(#a)"><g opacity=".1" filter="url(#b)"><path fill="url(#c)" d="M0 0h1516v338H0z"/></g><path d="M354 180c0 138.071-111.929 250-250 250s-250-111.929-250-250S-34.071-70 104-70 354 41.929 354 180Zm-437.5 0C-83.5 283.553.447 367.5 104 367.5S291.5 283.553 291.5 180 207.553-7.5 104-7.5-83.5 76.447-83.5 180Z" fill="url(#d)"/><path opacity=".6" d="M116.164 95.67a69.762 69.762 0 0 1 9.213-14.68c29.864-36.524 88.545-33.447 122.953-4.005 38.162 32.652 34.633 87.606 33.853 96.996-2.713 32.664-19.676 85.835-58.693 96.666-18.125 5.032-35.42-.626-50.51-11.122-11.916-8.29-27.628-7.517-39.002 2.201-4.302 3.676-9.098 6.782-14.426 8.983-12.058 4.98-22.792 3.646-27.441 3.009-36.242-4.963-71.645-46.217-71.312-84.791.383-44.264 47.765-78.216 95.365-93.257Z" fill="#FEECEC"/><path d="M236.876 148.763v90.392c0 .11-.005.22-.01.335 0 .053-.005.105-.01.157 0 .048-.005.1-.01.152 0 .021-.005.042-.005.063l-.016.099c-.005.079-.022.157-.032.236-.01.073-.026.152-.042.225-.005.037-.016.074-.026.11a.231.231 0 0 1-.016.084c-.005.036-.016.073-.026.109-.016.069-.037.136-.053.199a.083.083 0 0 1-.011.037c-.036.115-.068.23-.109.34 0 .005 0 .011-.005.016-.021.057-.042.115-.063.168-.021.052-.042.1-.057.147-.005.016-.016.031-.016.042-.063.142-.126.288-.199.424a5.139 5.139 0 0 1-.074.142c-.026.047-.052.088-.078.135-.026.043-.048.089-.079.131a3.76 3.76 0 0 1-.168.262c-.036.057-.073.105-.104.157-.089.115-.173.23-.267.34a4.96 4.96 0 0 1-.204.236 4.568 4.568 0 0 1-.215.225c-.031.037-.068.068-.104.105-.032.031-.063.062-.1.088a1.636 1.636 0 0 1-.121.11c-.01.01-.026.021-.037.031a4.594 4.594 0 0 1-.309.252c-.011.005-.021.016-.031.026-.083.057-.168.121-.256.178-.032.021-.058.042-.084.057a2.537 2.537 0 0 1-.141.09.769.769 0 0 1-.116.068c-.042.026-.083.053-.125.074a5.696 5.696 0 0 1-.922.423c-.021.006-.036.016-.057.022-.021.005-.048.016-.069.021a5.297 5.297 0 0 1-.617.178l-.205.047c-.042.01-.088.016-.131.021-.052.011-.109.021-.162.031-.01 0-.016 0-.021.005l-.131.016c-.021 0-.042.006-.062.006l-.115.015c-.021 0-.042.005-.068.005l-.241.016c-.115.005-.231.01-.346.01H70.734c-.114 0-.23-.005-.345-.01l-.24-.016a2.421 2.421 0 0 1-.267-.031c-.052-.006-.105-.011-.152-.022a4.362 4.362 0 0 1-.371-.068c-.037-.005-.069-.016-.105-.026a5.18 5.18 0 0 1-.392-.105c-.079-.026-.152-.047-.226-.073a7.184 7.184 0 0 1-1.016-.445l-.235-.142a6.536 6.536 0 0 1-1.906-1.765 6.18 6.18 0 0 1-.717-1.288c-.043-.105-.084-.22-.126-.33-.042-.11-.074-.225-.11-.34-.031-.116-.062-.231-.088-.345a7.368 7.368 0 0 1-.069-.325c-.005-.016-.005-.037-.01-.053a6.784 6.784 0 0 1-.042-.319c-.005-.005-.005-.016-.005-.026a4.047 4.047 0 0 1-.021-.245 5.013 5.013 0 0 1-.022-.493v-90.391a6.446 6.446 0 0 1 2.357-4.99.308.308 0 0 1 .042-.031l.335-.257a6.42 6.42 0 0 1 3.733-1.188h159.676c.157 0 .309.005.461.021a.233.233 0 0 1 .083.005c.147.01.299.026.44.047l.1.016c.125.021.251.048.371.079a5.503 5.503 0 0 1 .539.147c.136.042.278.094.409.147.188.073.371.162.549.256.1.047.199.1.293.157.168.095.33.199.482.314.005-.005.005 0 .005 0l.335.257c.016.011.031.021.042.031.089.068.168.142.247.214a5.812 5.812 0 0 1 .681.724c.073.088.141.178.204.267.273.371.503.774.686 1.204.053.116.1.236.147.356 0 .005.005.01.005.016.074.194.131.393.183.592a5.384 5.384 0 0 1 .111.523c.015.079.026.157.036.236.016.094.026.188.031.283.011.078.016.162.016.24.006.11.011.226.011.335l-.003-.001Z" fill="#DFE5EA"/><path d="M236.49 146.554H64.656a6.464 6.464 0 0 1 1.97-2.781.3.3 0 0 1 .041-.031l.335-.257 79.611-60.44a6.542 6.542 0 0 1 7.921 0l79.605 60.439c.005-.005.005 0 .005 0l.335.257c.016.011.032.021.042.031.089.069.168.142.247.215.062.052.121.109.178.168a5.8 5.8 0 0 1 .503.555c.073.089.141.178.204.267.273.371.503.775.686 1.204.053.116.1.236.147.356 0 .006.005.011.005.017h-.001Z" fill="url(#e)"/><path d="M86.105 93.263h126.802c6.388 0 11.576 5.187 11.576 11.577v136.078H74.529V104.84c0-6.389 5.187-11.577 11.576-11.577Z" fill="#fff"/><path d="M204.601 119.129H94.416a2.807 2.807 0 0 0-2.807 2.807v1.194a2.807 2.807 0 0 0 2.807 2.807H204.6a2.807 2.807 0 0 0 2.807-2.807v-1.194a2.807 2.807 0 0 0-2.807-2.807ZM94.416 133.67H204.6a2.81 2.81 0 0 1 2.807 2.807v1.194a2.809 2.809 0 0 1-2.807 2.807H94.416a2.807 2.807 0 0 1-2.807-2.806v-1.194a2.807 2.807 0 0 1 2.807-2.806v-.002Zm0 14.543H204.6a2.81 2.81 0 0 1 2.807 2.807v1.194a2.808 2.808 0 0 1-2.807 2.806H94.416a2.807 2.807 0 0 1-2.807-2.806v-1.194a2.807 2.807 0 0 1 2.807-2.806v-.001Zm0 14.543H204.6a2.81 2.81 0 0 1 2.807 2.808v1.193a2.809 2.809 0 0 1-2.807 2.807H94.416a2.808 2.808 0 0 1-2.807-2.807v-1.193a2.81 2.81 0 0 1 2.808-2.808h-.001Zm0 14.542H204.6a2.81 2.81 0 0 1 2.807 2.808v1.193a2.809 2.809 0 0 1-2.807 2.807H94.416a2.808 2.808 0 0 1-2.807-2.807v-1.193a2.808 2.808 0 0 1 2.807-2.807v-.001Z" fill="#E4ECF9"/><path d="M150.575 196.384v.005a4.235 4.235 0 0 1-.89.733l-78.595 48.5h-.356a6.328 6.328 0 0 1-1.874-.278c-.084-.026-.168-.052-.247-.078a6.417 6.417 0 0 1-2.87-2.001 5.865 5.865 0 0 1-.539-.76c-.057-.088-.104-.178-.157-.266-.047-.095-.1-.189-.14-.283a6.432 6.432 0 0 1-.64-2.802v-90.391a6.446 6.446 0 0 1 2.357-4.99.296.296 0 0 1 .042-.031l.335-.257a6.42 6.42 0 0 1 3.733-1.188h1.476l6.902 4.257 63.614 39.258 2.393 1.477 4.566 2.817c.34.209.639.461.89.733v.005c1.419 1.555 1.419 3.99 0 5.54Z" fill="url(#f)"/><path d="M236.879 148.764v90.392c0 .11-.005.219-.01.335 0 .052-.005.105-.011.157 0 .047-.005.1-.01.152 0 .021-.005.042-.005.062l-.016.1c-.005.079-.021.157-.031.236-.01.073-.026.151-.042.225 0 .01-.005.026-.005.036-.005.021-.01.047-.021.074a.222.222 0 0 1-.016.083.706.706 0 0 1-.027.11 2.916 2.916 0 0 1-.063.235 3.478 3.478 0 0 1-.11.341c0 .005 0 .011-.005.016-.021.057-.036.109-.062.168-.016.047-.036.094-.057.147a.313.313 0 0 0-.016.042c-.063.142-.126.288-.2.423a3.244 3.244 0 0 1-.073.142c-.026.048-.052.089-.079.136-.026.042-.047.089-.078.131-.052.089-.11.178-.168.262-.036.057-.073.104-.105.157-.088.12-.178.23-.266.34a4.93 4.93 0 0 1-.205.235c-.068.079-.141.152-.214.226-.031.037-.068.068-.105.104a.699.699 0 0 1-.099.089c-.037.036-.079.073-.121.11-.01.01-.026.021-.037.031a4.52 4.52 0 0 1-.309.251c-.011.006-.021.017-.031.027-.084.057-.168.12-.257.178-.031.021-.057.042-.083.057-.048.031-.095.063-.141.09a.882.882 0 0 1-.116.068c-.042.026-.083.052-.126.073a5.736 5.736 0 0 1-.921.424c-.021.005-.042.016-.058.021-.021.005-.047.016-.068.021a2.576 2.576 0 0 1-.225.074c-.131.042-.262.073-.393.104l-.204.048a1.19 1.19 0 0 1-.131.021c-.052.011-.11.021-.162.031h-.016c-.047.005-.094.016-.136.021-.021 0-.042.005-.062.005a8.66 8.66 0 0 1-.115.015c-.021 0-.042.006-.068.006l-.242.016c-.115.005-.23.01-.345.01h-.356l-78.595-48.5a4.022 4.022 0 0 1-.884-.734v-.005c-1.424-1.555-1.424-3.979 0-5.54v-.005a4.07 4.07 0 0 1 .884-.733l4.56-2.817 2.393-1.477 63.62-39.258 6.9-4.257h1.476c.157 0 .309.005.461.021a.238.238 0 0 1 .084.005c.147.01.298.026.439.047.032.005.069.01.1.016.126.021.252.048.371.079a5.412 5.412 0 0 1 .54.147c.136.042.277.094.408.147.188.073.372.162.55.256.099.047.199.1.292.157.168.095.33.199.482.314.005-.005.005 0 .005 0l.335.257a.346.346 0 0 1 .043.031c.088.068.168.142.246.214.063.053.121.11.178.168.178.173.345.357.503.556.074.088.141.178.204.267.273.371.503.774.687 1.204.052.116.099.236.146.356 0 .005.006.01.006.016a6.221 6.221 0 0 1 .293 1.115c.015.079.026.157.037.236.016.094.026.188.031.283.01.078.016.162.016.24.005.11.01.226.01.335l.001.001Z" fill="url(#g)"/><path opacity=".29" d="M236.878 237.931v.941c0 3.727-2.896 6.75-6.467 6.75H70.736c-3.57 0-6.467-3.023-6.467-6.75v-.941l82.129-54.042a7.548 7.548 0 0 1 8.346 0l82.134 54.042Z" fill="#474747"/><path d="M236.878 238.255v.901a6.467 6.467 0 0 1-6.467 6.466H70.736a6.467 6.467 0 0 1-6.467-6.466v-.901l82.129-51.773a7.827 7.827 0 0 1 8.346 0l82.134 51.773Z" fill="url(#h)"/><path d="m86.54 233.181-.042-.001a62.352 62.352 0 0 1-5.728-.492 1.06 1.06 0 1 1 .279-2.1c1.822.241 3.683.401 5.533.475a1.06 1.06 0 0 1-.041 2.119v-.001Zm5.649-.026a1.06 1.06 0 0 1-.05-2.119 65.9 65.9 0 0 0 5.537-.505 1.06 1.06 0 0 1 .281 2.101 68.46 68.46 0 0 1-5.716.522l-.052.001Zm-16.84-1.463a1.08 1.08 0 0 1-.237-.027 61.305 61.305 0 0 1-5.538-1.551 1.06 1.06 0 0 1 .667-2.012 58.851 58.851 0 0 0 5.345 1.498c.57.131.927.699.795 1.27-.113.49-.55.823-1.032.823v-.001Zm28.035-.021a1.06 1.06 0 0 1-.222-2.096 74.49 74.49 0 0 0 5.402-1.376 1.06 1.06 0 0 1 .598 2.034 76.361 76.361 0 0 1-5.555 1.414c-.075.016-.15.025-.224.025l.001-.001Zm10.842-3.182a1.06 1.06 0 0 1-.371-2.053 81.98 81.98 0 0 0 5.16-2.129 1.06 1.06 0 1 1 .875 1.931 83.586 83.586 0 0 1-5.294 2.183 1.044 1.044 0 0 1-.369.067l-.001.001Zm-49.602-.336c-.139 0-.28-.028-.417-.085a79.542 79.542 0 0 1-5.182-2.452 1.06 1.06 0 1 1 .974-1.882 77.773 77.773 0 0 0 5.043 2.385 1.06 1.06 0 0 1-.418 2.034Zm59.896-4.333a1.061 1.061 0 0 1-.506-1.992 66.776 66.776 0 0 0 4.214-2.473 1.06 1.06 0 0 1 1.141 1.786 69.55 69.55 0 0 1-4.347 2.552c-.16.087-.332.127-.503.127h.001Zm-69.94-.852c-.187 0-.377-.05-.548-.154a83.577 83.577 0 0 1-4.793-3.137 1.06 1.06 0 0 1 1.223-1.733 80.975 80.975 0 0 0 4.67 3.057 1.06 1.06 0 0 1-.551 1.967Zm-9.231-6.529c-.237 0-.476-.079-.674-.242a68.374 68.374 0 0 1-4.095-3.654 1.063 1.063 0 0 1-.266-.268 1.06 1.06 0 0 1 1.374-1.573c1.717.385 3.459.675 5.184.867a1.06 1.06 0 0 1-.233 2.107 51.712 51.712 0 0 1-1.97-.258c.445.385.897.768 1.355 1.145a1.06 1.06 0 0 1-.675 1.878v-.002Zm7.047-2.469a1.06 1.06 0 0 1-.01-2.121 45.517 45.517 0 0 0 4.432-.254c.3-.032.654-.07 1.093-.122a1.057 1.057 0 0 1 1.178.926 1.06 1.06 0 0 1-.926 1.178 74.26 74.26 0 0 1-1.076.121 48.928 48.928 0 0 1-4.68.271h-.01l-.001.001Zm11.228-1.31a1.059 1.059 0 0 1-.217-2.096 60.714 60.714 0 0 0 5.386-1.39 1.06 1.06 0 1 1 .624 2.026 63.415 63.415 0 0 1-5.573 1.438 1.033 1.033 0 0 1-.22.022Zm-27.86-1.499c-.117 0-.235-.019-.352-.06a53.137 53.137 0 0 1-5.325-2.207 1.061 1.061 0 0 1 .917-1.912 50.69 50.69 0 0 0 5.11 2.12 1.06 1.06 0 0 1-.35 2.06v-.001Zm38.653-1.856a1.06 1.06 0 0 1-.419-2.033 42.678 42.678 0 0 0 4.92-2.491 1.06 1.06 0 0 1 1.083 1.822 44.682 44.682 0 0 1-5.165 2.617 1.069 1.069 0 0 1-.418.086v-.001Zm-37.125-.772a1.06 1.06 0 0 1-.812-.378 49.005 49.005 0 0 1-3.454-4.628 1.06 1.06 0 1 1 1.772-1.162 46.843 46.843 0 0 0 3.304 4.427 1.06 1.06 0 0 1-.81 1.742v-.001Zm-11.703-2.249a1.06 1.06 0 0 1-.557-.158 54.461 54.461 0 0 1-4.73-3.288 1.06 1.06 0 1 1 1.299-1.674 52.546 52.546 0 0 0 4.548 3.159 1.059 1.059 0 0 1-.559 1.96v.001Zm58.484-2.789a1.059 1.059 0 0 1-.682-1.871 27.868 27.868 0 0 0 3.81-3.874 1.061 1.061 0 0 1 1.652 1.329 30.018 30.018 0 0 1-4.1 4.168c-.198.167-.44.248-.68.248Zm-67.396-4.129c-.264 0-.53-.098-.735-.296a53.273 53.273 0 0 1-3.931-4.215 1.059 1.059 0 1 1 1.625-1.359 51.514 51.514 0 0 0 3.775 4.047 1.059 1.059 0 0 1-.735 1.824l.001-.001Zm14.479-.289c-.4 0-.782-.227-.962-.613a33.82 33.82 0 0 1-2.004-5.47 1.058 1.058 0 1 1 2.046-.549 31.779 31.779 0 0 0 1.88 5.124 1.06 1.06 0 0 1-.961 1.507v.001Zm59.906-4.349a1.06 1.06 0 0 1-.949-1.53 25.06 25.06 0 0 0 1.776-4.781l.077-.3a1.06 1.06 0 1 1 2.057.515l-.081.319a27.205 27.205 0 0 1-1.928 5.186 1.06 1.06 0 0 1-.951.591h-.001Zm-81.615-4.02a1.06 1.06 0 0 1-.885-.475 50.559 50.559 0 0 1-2.907-4.983 1.06 1.06 0 0 1 1.888-.963 48.595 48.595 0 0 0 2.786 4.775 1.06 1.06 0 0 1-.883 1.645v.001Zm18.84-2.486a1.06 1.06 0 0 1-1.057-.991 28.473 28.473 0 0 1 .23-5.856 1.058 1.058 0 1 1 2.097.301 26.357 26.357 0 0 0-.213 5.416 1.06 1.06 0 0 1-1.058 1.129v.001Zm65.506-4.375h-.046a1.06 1.06 0 0 1-1.013-1.105 29.91 29.91 0 0 0-.276-5.441 1.06 1.06 0 1 1 2.098-.299 32.102 32.102 0 0 1 .296 5.831 1.06 1.06 0 0 1-1.058 1.014Zm-89.466-3.189a1.06 1.06 0 0 1-.992-.69 52.352 52.352 0 0 1-1.713-5.508 1.06 1.06 0 1 1 2.055-.516 50.157 50.157 0 0 0 1.643 5.283 1.06 1.06 0 0 1-.993 1.431Zm25.515-3.558a1.06 1.06 0 0 1-1.004-1.401 38.436 38.436 0 0 1 2.292-5.338 1.06 1.06 0 0 1 1.88.979 36.33 36.33 0 0 0-2.165 5.042 1.06 1.06 0 0 1-1.004.719l.001-.001Zm62.39-4.389a1.06 1.06 0 0 1-1.008-.735 34.139 34.139 0 0 0-2.096-5.059 1.06 1.06 0 0 1 1.888-.966 36.351 36.351 0 0 1 2.226 5.374 1.06 1.06 0 0 1-1.01 1.386Zm-90.666-2.994a1.06 1.06 0 0 1-1.049-.91 57.368 57.368 0 0 1-.516-5.735 1.06 1.06 0 0 1 1.016-1.101c.6-.02 1.078.432 1.101 1.017.075 1.857.242 3.714.497 5.521a1.058 1.058 0 0 1-1.05 1.208Zm33.447-2.631a1.06 1.06 0 0 1-.866-1.67 45.823 45.823 0 0 1 3.624-4.509 1.06 1.06 0 0 1 1.564 1.429 43.885 43.885 0 0 0-3.456 4.299c-.206.294-.534.45-.867.45v.001Zm52.098-4.401c-.326 0-.648-.15-.855-.434a33.672 33.672 0 0 0-3.582-4.139 1.06 1.06 0 0 1 1.483-1.515 35.608 35.608 0 0 1 3.81 4.402 1.06 1.06 0 0 1-.855 1.686Zm-44.49-3.928a1.06 1.06 0 0 1-.685-1.869 42.64 42.64 0 0 1 4.66-3.44 1.058 1.058 0 1 1 1.137 1.787 40.707 40.707 0 0 0-4.428 3.27 1.053 1.053 0 0 1-.684.252Zm-41.51-.319c-.02 0-.042 0-.062-.002a1.06 1.06 0 0 1-.998-1.119 56.95 56.95 0 0 1 .616-5.726 1.06 1.06 0 1 1 2.093.335 55.187 55.187 0 0 0-.592 5.512c-.033.564-.5 1-1.057 1Zm77.936-3.602c-.205 0-.412-.059-.594-.183a27.515 27.515 0 0 0-4.771-2.599 1.06 1.06 0 0 1 .821-1.954 29.744 29.744 0 0 1 5.14 2.799 1.06 1.06 0 0 1-.597 1.937h.001Zm-26.907-2.101a1.06 1.06 0 0 1-.427-2.031 33.484 33.484 0 0 1 5.516-1.879 1.06 1.06 0 1 1 .5 2.06 31.243 31.243 0 0 0-5.163 1.76 1.053 1.053 0 0 1-.425.089v.001Zm16.55-2.211a1.04 1.04 0 0 1-.19-.018 24.708 24.708 0 0 0-5.397-.38 1.053 1.053 0 0 1-1.1-1.018 1.059 1.059 0 0 1 1.018-1.1c.352-.013.729-.006 1.057-.02 1.613 0 3.228.145 4.8.433a1.061 1.061 0 0 1-.188 2.103Zm-65.759-3.223a1.062 1.062 0 0 1-1.021-1.347 53.657 53.657 0 0 1 1.857-5.453 1.06 1.06 0 1 1 1.967.791 51.221 51.221 0 0 0-1.783 5.236 1.061 1.061 0 0 1-1.02.773Zm4.2-10.465a1.06 1.06 0 0 1-.935-1.557 56.396 56.396 0 0 1 2.958-4.941 1.06 1.06 0 0 1 1.76 1.181 54.003 54.003 0 0 0-2.846 4.753c-.19.359-.557.564-.937.564Zm6.28-9.378a1.06 1.06 0 0 1-.816-1.735 59.815 59.815 0 0 1 3.876-4.253 1.06 1.06 0 1 1 1.497 1.502 57.638 57.638 0 0 0-3.739 4.102 1.057 1.057 0 0 1-.816.384h-.001Zm7.995-7.975a1.058 1.058 0 0 1-.675-1.877 63.773 63.773 0 0 1 4.595-3.455 1.06 1.06 0 0 1 1.196 1.75 62.09 62.09 0 0 0-4.443 3.339 1.056 1.056 0 0 1-.674.243Zm9.324-6.376a1.06 1.06 0 0 1-.519-1.985 66.41 66.41 0 0 1 5.13-2.589 1.059 1.059 0 1 1 .873 1.931 64.562 64.562 0 0 0-4.966 2.507 1.054 1.054 0 0 1-.518.136Zm10.294-4.656a1.06 1.06 0 0 1-.353-2.059 69.46 69.46 0 0 1 5.486-1.684 1.06 1.06 0 1 1 .537 2.051 67.37 67.37 0 0 0-5.316 1.632 1.069 1.069 0 0 1-.353.061v-.001Z" fill="#F4B545"/><path opacity=".1" d="M252.492 190.224c.084-.681-.667-1.383-1.67-1.56l-70.417-12.485c-1.002-.178-1.892.233-1.976.914l-2.405 19.411c-.084.681.668 1.382 1.67 1.56l70.417 12.485c1.002.178 1.892-.234 1.976-.914l2.405-19.411Z" fill="#232323"/><path d="M202.62 235.903a38.03 38.03 0 0 1-1.51-.031 1.06 1.06 0 0 1-1.016-1.102 1.066 1.066 0 0 1 1.101-1.016 35.43 35.43 0 0 0 5.478-.204 1.059 1.059 0 1 1 .241 2.105 37.918 37.918 0 0 1-4.294.247v.001Zm-7.068-.729c-.073 0-.147-.008-.221-.023a34.832 34.832 0 0 1-5.572-1.677 1.062 1.062 0 0 1 .78-1.972c1.695.671 3.455 1.2 5.229 1.575a1.059 1.059 0 0 1-.216 2.097Zm16.79-.557a1.06 1.06 0 0 1-.269-2.085 42.576 42.576 0 0 0 5.228-1.746 1.06 1.06 0 0 1 .798 1.963 44.664 44.664 0 0 1-5.488 1.833c-.09.024-.181.035-.269.035Zm-27.255-3.564c-.184 0-.371-.048-.54-.15a40.6 40.6 0 0 1-4.753-3.323 1.06 1.06 0 1 1 1.333-1.647 38.584 38.584 0 0 0 4.503 3.15 1.059 1.059 0 0 1-.543 1.971v-.001Zm37.71-.669a1.062 1.062 0 0 1-.515-1.987 48.198 48.198 0 0 0 4.673-2.955 1.061 1.061 0 0 1 1.233 1.725 50.686 50.686 0 0 1-4.877 3.083c-.163.09-.339.133-.513.133l-.001.001Zm-46.492-6.399c-.278 0-.557-.109-.764-.326a53.05 53.05 0 0 1-3.757-4.38 1.061 1.061 0 0 1 1.681-1.293 50.754 50.754 0 0 0 3.606 4.205 1.061 1.061 0 0 1-.765 1.794h-.001Zm55.669-.158a1.06 1.06 0 0 1-.71-1.847 47.194 47.194 0 0 0 3.884-3.932 1.061 1.061 0 0 1 1.594 1.398 49.724 49.724 0 0 1-4.058 4.108 1.061 1.061 0 0 1-.709.273h-.001Zm3.642-6.297a1.06 1.06 0 0 1-.102-2.115 25.858 25.858 0 0 0 3.051-.485 1.062 1.062 0 0 1-.046-1.247 37.544 37.544 0 0 0 2.737-4.762 1.059 1.059 0 1 1 1.911.915 39.428 39.428 0 0 1-2.582 4.566l.241-.074a1.061 1.061 0 0 1 .633 2.024 28.645 28.645 0 0 1-5.741 1.174.905.905 0 0 1-.104.005l.002-.001Zm-5.636-.081c-.046 0-.09-.003-.136-.009a30.17 30.17 0 0 1-5.699-1.332 1.06 1.06 0 0 1 .672-2.01 27.984 27.984 0 0 0 5.297 1.24 1.06 1.06 0 0 1-.134 2.111Zm-60.576-2.406a1.06 1.06 0 0 1-.9-.499 60.449 60.449 0 0 1-2.815-5.028 1.06 1.06 0 0 1 1.897-.944 58.362 58.362 0 0 0 2.714 4.85 1.06 1.06 0 0 1-.898 1.622l.002-.001Zm76.945-.828a1.059 1.059 0 0 1-.499-1.996 32.651 32.651 0 0 0 4.591-2.968 1.06 1.06 0 1 1 1.294 1.679 34.887 34.887 0 0 1-4.89 3.161 1.057 1.057 0 0 1-.496.124Zm-27.05-.302c-.171 0-.344-.042-.504-.129a30.747 30.747 0 0 1-4.861-3.251 1.06 1.06 0 1 1 1.346-1.638 28.515 28.515 0 0 0 4.525 3.026c.515.28.706.922.426 1.437a1.057 1.057 0 0 1-.932.556v-.001Zm35.978-6.55a1.059 1.059 0 0 1-.769-1.79 38.024 38.024 0 0 0 3.48-4.25 1.059 1.059 0 1 1 1.732 1.222 40.243 40.243 0 0 1-3.675 4.488c-.208.219-.488.33-.768.33Zm-44.597-.637c-.32 0-.637-.144-.845-.419a20.636 20.636 0 0 1-2.893-5.181 1.06 1.06 0 1 1 1.982-.751 18.54 18.54 0 0 0 2.599 4.649 1.06 1.06 0 0 1-.844 1.701l.001.001Zm33.524-1.57a1.059 1.059 0 0 1-1.023-1.34c.496-1.809.789-3.604.869-5.335a1.05 1.05 0 0 1 1.108-1.009 1.06 1.06 0 0 1 1.009 1.108 26.64 26.64 0 0 1-.942 5.796 1.06 1.06 0 0 1-1.021.78Zm17.58-6.991a1.059 1.059 0 0 1-.941-1.546 42.374 42.374 0 0 0 2.2-5.051 1.06 1.06 0 1 1 1.994.718 44.265 44.265 0 0 1-2.311 5.305 1.06 1.06 0 0 1-.942.574Zm-54.994-1.861a1.06 1.06 0 0 1-1.058-1.009 20.03 20.03 0 0 1-.025-.98c0-1.618.195-3.273.581-4.921a1.059 1.059 0 1 1 2.063.482 19.606 19.606 0 0 0-.524 4.439c0 .293.008.585.022.877a1.059 1.059 0 0 1-1.008 1.11l-.051.001v.001Zm37.87-2.335a1.06 1.06 0 0 1-1.038-.852 28.53 28.53 0 0 0-1.587-5.209 1.06 1.06 0 1 1 1.963-.803 30.796 30.796 0 0 1 1.703 5.597 1.06 1.06 0 0 1-1.041 1.267Zm-35.395-8.567a1.06 1.06 0 0 1-.943-1.541 25.639 25.639 0 0 1 3.252-4.907 1.059 1.059 0 1 1 1.619 1.368 23.493 23.493 0 0 0-2.982 4.5 1.06 1.06 0 0 1-.945.58h-.001Zm31.155-1.851c-.349 0-.692-.172-.894-.489a26.035 26.035 0 0 0-3.364-4.25 1.06 1.06 0 0 1 1.509-1.489 28.118 28.118 0 0 1 3.64 4.596 1.06 1.06 0 0 1-.891 1.631v.001Zm-23.896-6.679a1.06 1.06 0 0 1-.611-1.927c1.711-1.207 3.51-2.097 5.349-2.646a1.059 1.059 0 1 1 .606 2.031c-1.618.484-3.211 1.273-4.734 2.347a1.057 1.057 0 0 1-.61.195Zm15.94-1.197a1.05 1.05 0 0 1-.517-.135c-1.606-.899-3.263-1.461-4.929-1.668a1.059 1.059 0 0 1-.921-1.182 1.056 1.056 0 0 1 1.182-.921c1.939.241 3.858.888 5.704 1.922a1.06 1.06 0 0 1-.519 1.984Z" fill="#F4B545"/><path opacity=".1" d="m93.873 79.185-79.957 10.67 19.385 14.705.303 27.065 16.705-14.191 9.387 7.079 34.177-45.328Z" fill="#232323"/><path d="m35.35 129.984-.444-39.535 60.712-12.905-60.269 52.44Z" fill="url(#i)"/><path d="M35.176 103.019c.307-.155 60.44-25.475 60.44-25.475L15.66 88.214l19.516 14.805Z" fill="url(#j)"/><path d="m41.805 108.064-6.455 21.919 27.687-23.521-21.232 1.602Z" fill="url(#k)"/><path d="m41.8 108.065 19.637 14.807 34.177-45.328L41.8 108.065Z" fill="url(#l)"/><path d="m179.389 195.03 70.434 12.409c.434.076.826.018 1.104-.114.278-.133.411-.32.434-.504l2.511-19.893c.024-.191-.062-.431-.307-.666a2.034 2.034 0 0 0-1.043-.499l-70.434-12.409c-.435-.077-.826-.018-1.104.114-.279.133-.411.32-.434.504l-2.512 19.893 1.351 1.165Zm0 0c-.434-.077-.801-.268-1.043-.499m1.043.499-1.043-.499m0 0c-.245-.235-.332-.475-.308-.666l.308.666Z" fill="#1E2128" stroke="#F6C723" stroke-width=".764"/><path opacity=".1" d="M252.624 151.86c-.066-.805-.954-1.421-1.974-1.37l-71.671 3.592c-1.02.051-1.802.751-1.737 1.556l1.851 22.956c.065.805.953 1.422 1.973 1.371l71.671-3.592c1.02-.052 1.802-.752 1.737-1.556l-1.85-22.957Z" fill="#232323"/><path d="M183.055 177.486c-.897.045-1.526-.493-1.568-1.01l-1.845-22.803v-.001c-.04-.5.474-1.088 1.37-1.133h.001l71.448-3.568c.897-.045 1.526.493 1.568 1.01l1.845 22.803v.001c.041.5-.474 1.088-1.37 1.133l-71.449 3.568Z" fill="#3B99FC" stroke="#FFF6F8" stroke-width=".764"/><path opacity=".1" d="M199.322 169.382a7.079 7.079 0 1 0-11.22-8.633 7.08 7.08 0 1 0 11.22 8.633Zm-3.569 21.978a7.08 7.08 0 1 0-9.32-10.66 7.08 7.08 0 0 0 9.32 10.66Z" fill="#FEF1F2"/><path opacity=".1" d="m258.355 144.67-6.834-21.225c-.239-.744-1.243-1.205-2.23-1.024l-69.331 12.678c-.987.181-1.599.937-1.359 1.681l6.833 21.225c.24.744 1.243 1.205 2.231 1.024l69.331-12.678c.987-.18 1.599-.937 1.359-1.681Z" fill="#232323"/><path d="m181.372 133.711 69.574-12.593c.884-.16 1.595.263 1.745.722l6.858 21.081c.149.46-.223 1.079-1.107 1.239l-69.574 12.593c-.883.16-1.594-.262-1.744-.722l-6.858-21.081c-.149-.46.223-1.079 1.106-1.239Z" fill="url(#m)" stroke="#fff" stroke-width=".764"/><path opacity=".1" d="M201.291 147.107a7.08 7.08 0 0 0-1.294-9.928 7.077 7.077 0 0 0-9.926 1.296 7.08 7.08 0 0 0 1.293 9.928 7.08 7.08 0 0 0 9.927-1.296Z" fill="#FEF1F2"/><path d="M199.489 143.228c.256.944-.181 1.787-1.137 2.143l-3.076 1.143a1.822 1.822 0 0 1-2.343-1.074l-.888-2.394c-.345-.93-.026-1.788.804-2.221.084-.047.174-.088.27-.124l3.075-1.143c.088-.033.175-.062.262-.078.852-.208 1.618.157 1.997.958.047.095-.005.208-.104.245l-.529.197a1.249 1.249 0 0 0-.72.668c-.166.35-.164.754-.001 1.098.285.602 1.014.888 1.663.646l.488-.182c.1-.036.212.015.239.118Z" fill="#fff"/><path d="m199.193 141.35.261.704a.374.374 0 0 1-.212.476l-.67.249c-.369.137-.807-.007-.975-.365a.73.73 0 0 1-.002-.634.724.724 0 0 1 .416-.388l.71-.264a.374.374 0 0 1 .472.222Zm-2.013 24.548c-.013.91-.622 1.552-1.569 1.623l-3.044.228a1.697 1.697 0 0 1-1.818-1.566l-.177-2.369c-.069-.921.438-1.606 1.292-1.779.087-.02.178-.034.272-.041l3.045-.228a1.44 1.44 0 0 1 .254-.002c.816.034 1.406.558 1.539 1.372a.167.167 0 0 1-.156.192l-.524.04a1.165 1.165 0 0 0-.816.411c-.239.27-.341.632-.284.982.1.612.678 1.055 1.32 1.007l.484-.036a.166.166 0 0 1 .182.166Z" fill="#fff"/><path d="m197.399 164.142.053.698a.35.35 0 0 1-.313.37l-.663.05c-.365.028-.72-.215-.778-.578a.681.681 0 0 1 .162-.567.674.674 0 0 1 .472-.24l.703-.052c.19-.008.35.133.364.319Z" fill="#fff"/><path d="M194.332 187.524c-.191.89-.913 1.4-1.856 1.284l-3.029-.372a1.697 1.697 0 0 1-1.477-1.891l.288-2.358c.113-.917.743-1.489 1.615-1.492.089-.002.181.002.275.013l3.03.372c.088.011.171.025.251.048.793.193 1.269.823 1.24 1.647a.167.167 0 0 1-.19.158l-.522-.064a1.166 1.166 0 0 0-.881.244 1.198 1.198 0 0 0-.47.907c-.021.62.459 1.167 1.098 1.246l.482.059c.097.012.168.103.146.199Z" fill="#F6C723"/><path d="m194.89 185.845-.085.694a.35.35 0 0 1-.379.303l-.66-.081c-.363-.045-.664-.352-.65-.72a.684.684 0 0 1 .269-.524.677.677 0 0 1 .51-.143l.7.086c.188.03.317.2.295.385Z" fill="#F6C723"/><path opacity=".1" d="M281.398 193.622c8.064-8.065 8.064-21.141 0-29.206-8.063-8.065-21.138-8.065-29.201 0-8.064 8.065-8.064 21.141 0 29.206 8.063 8.065 21.138 8.065 29.201 0Z" fill="#232323"/><path d="M271.186 197.204c11.404 0 20.649-9.246 20.649-20.651 0-11.406-9.245-20.652-20.649-20.652-11.404 0-20.649 9.246-20.649 20.652 0 11.405 9.245 20.651 20.649 20.651Z" fill="url(#n)"/><path fill-rule="evenodd" clip-rule="evenodd" d="M266.708 166.76h3.256l-.934 4.264 7.598-.012.931-4.252h3.256l-.93 4.246 2.342-.003v3.181l-3.039.005-1.087 4.965 2.498-.004v3.182l-3.195.005-.93 4.246h-3.256l.929-4.241-7.598.013-.926 4.228h-3.256l.925-4.223-2.97.005v-3.182l3.667-.006 1.087-4.964-3.126.005v-3.182l3.823-.006.935-4.27Zm8.136 12.399 1.047-4.783-4.092 2.025a.497.497 0 0 1-.513-.044l-2.954-2.146-1.086 4.961 7.598-.013Zm-5.364-4.923 2.146.873a.495.495 0 0 0 .335.015l2.866-.888h-5.347Z" fill="#FFF6F8"/><path d="m210.498 62.064 2.231-1.173a.69.69 0 0 1 1 .727l-.426 2.485a.692.692 0 0 0 .198.61l1.806 1.76a.69.69 0 0 1-.383 1.175l-2.494.364a.689.689 0 0 0-.519.377l-1.116 2.261a.69.69 0 0 1-1.237 0l-1.115-2.261a.692.692 0 0 0-.519-.377l-2.495-.364a.69.69 0 0 1-.383-1.175l1.806-1.76a.692.692 0 0 0 .198-.61l-.426-2.485a.69.69 0 0 1 1-.727l2.231 1.173a.69.69 0 0 0 .642 0h.001Z" fill="url(#o)"/><path d="M28.975 241.575a5.939 5.939 0 0 1-5.932-5.933 5.94 5.94 0 0 1 5.932-5.934 5.94 5.94 0 0 1 5.933 5.934 5.94 5.94 0 0 1-5.933 5.933Zm0-10.235c-2.371 0-4.3 1.93-4.3 4.302a4.305 4.305 0 0 0 4.3 4.301 4.307 4.307 0 0 0 4.301-4.301 4.307 4.307 0 0 0-4.3-4.302Z" fill="url(#p)"/><path d="M31.11 237.779a3.023 3.023 0 1 0-4.275-4.274 3.023 3.023 0 0 0 4.276 4.274Z" fill="url(#q)"/><path d="M151.637 271.09a2.727 2.727 0 1 0 0-5.454 2.727 2.727 0 0 0 0 5.454Z" fill="url(#r)"/><path d="M106.371 54.455a2.727 2.727 0 1 0 0-5.455 2.727 2.727 0 0 0 0 5.455Z" fill="url(#s)"/><path d="M207.939 141.104c-.133-.698-.12-1.266.04-1.702.163-.441.533-.717 1.11-.827.578-.11 1.021.011 1.331.362.312.346.535.869.668 1.567.135.707.121 1.283-.041 1.728-.159.44-.527.716-1.105.826-.577.11-1.023-.01-1.336-.361-.311-.355-.533-.886-.667-1.593Zm2.471-.471a4.409 4.409 0 0 0-.225-.817 1.09 1.09 0 0 0-.359-.502c-.157-.121-.363-.157-.617-.109-.254.049-.432.158-.534.328a1.135 1.135 0 0 0-.155.601c.002.234.035.514.097.841.064.339.139.62.223.843.084.222.204.392.36.508.161.116.368.15.622.102.255-.049.433-.156.535-.322.107-.167.158-.369.155-.607a5.281 5.281 0 0 0-.102-.866Zm3.039.018 1.399 1.484-.781.149-.936-.995-.463 1.262-.721.137.766-1.847-1.401-1.491.781-.148.937.995.463-1.262.72-.137-.764 1.853Zm1.366-.242a1.937 1.937 0 0 1 .034-.942c.092-.289.247-.528.466-.716.22-.189.489-.313.808-.374.404-.077.756-.043 1.055.1.303.139.534.378.695.715l-.745.142a.81.81 0 0 0-.365-.332.873.873 0 0 0-.529-.043.852.852 0 0 0-.621.432c-.128.229-.158.524-.089.883.068.359.204.624.408.795a.858.858 0 0 0 .736.173c.4-.076.631-.302.693-.678l.746-.142a1.54 1.54 0 0 1-.391.916c-.229.248-.541.41-.937.486a1.693 1.693 0 0 1-.888-.051 1.572 1.572 0 0 1-.697-.495 1.964 1.964 0 0 1-.379-.869Zm3.278-2.815-.12-.63 1.26-.241.84 4.416-.696.133-.721-3.786-.563.108Zm3.561 2.001a.765.765 0 0 0 .348.411c.153.08.343.098.569.055.287-.055.475-.208.565-.46.091-.251.084-.649-.02-1.195a.972.972 0 0 1-.351.4c-.16.106-.342.178-.548.218-.263.05-.511.042-.745-.022a1.254 1.254 0 0 1-.6-.381 1.581 1.581 0 0 1-.329-.741c-.085-.444-.023-.822.186-1.134.212-.317.546-.518 1.002-.605.549-.105.974.005 1.274.328.303.319.527.856.67 1.611.1.521.136.956.11 1.304-.021.347-.123.626-.305.836-.182.211-.462.352-.842.424-.432.083-.787.033-1.064-.148a1.317 1.317 0 0 1-.556-.78l.636-.121Zm.573-1.176c.242-.046.418-.157.527-.333.112-.18.144-.396.097-.646-.053-.279-.169-.48-.348-.605-.175-.13-.39-.171-.644-.122-.255.048-.441.167-.56.357-.115.186-.149.407-.099.666a.91.91 0 0 0 .328.571c.175.13.408.167.699.112Zm3.017 1.779a.437.437 0 0 1-.339-.067.437.437 0 0 1-.187-.291.437.437 0 0 1 .067-.339.439.439 0 0 1 .291-.188.427.427 0 0 1 .333.069.433.433 0 0 1 .187.29.435.435 0 0 1-.067.34.43.43 0 0 1-.285.186Zm1.461-.279a.433.433 0 0 1-.339-.067.433.433 0 0 1-.187-.291.437.437 0 0 1 .067-.339.437.437 0 0 1 .291-.187.43.43 0 0 1 .333.068.437.437 0 0 1 .187.291.433.433 0 0 1-.067.339.43.43 0 0 1-.285.186Zm1.461-.278a.437.437 0 0 1-.339-.067.437.437 0 0 1-.187-.291.437.437 0 0 1 .067-.339.434.434 0 0 1 .291-.187.423.423 0 0 1 .333.068.43.43 0 0 1 .187.291.433.433 0 0 1-.067.339.427.427 0 0 1-.285.186Zm1.461-.279a.433.433 0 0 1-.339-.067.433.433 0 0 1-.187-.29.439.439 0 0 1 .358-.527.43.43 0 0 1 .333.068.434.434 0 0 1 .187.291.433.433 0 0 1-.067.339.427.427 0 0 1-.285.186Zm1.461-.278a.437.437 0 0 1-.339-.067.437.437 0 0 1-.187-.291.437.437 0 0 1 .067-.339.434.434 0 0 1 .291-.187.427.427 0 0 1 .333.068.432.432 0 0 1 .187.291.433.433 0 0 1-.067.339.427.427 0 0 1-.285.186Zm1.39-2.7c-.46-.13-.733-.421-.819-.874a1.165 1.165 0 0 1 .049-.631c.075-.202.211-.377.409-.523.197-.151.454-.256.769-.316a1.8 1.8 0 0 1 .824.012c.242.063.435.175.579.336.143.161.236.35.277.568.043.226.023.437-.061.633a1.155 1.155 0 0 1-.38.481c.247.041.455.145.625.314.169.164.279.376.328.634a1.258 1.258 0 0 1-.536 1.307 1.966 1.966 0 0 1-.781.319 1.982 1.982 0 0 1-.842-.009 1.324 1.324 0 0 1-.64-.362 1.255 1.255 0 0 1-.333-.658 1.174 1.174 0 0 1 .071-.717c.097-.215.251-.386.461-.514Zm1.444-1.217c-.043-.226-.147-.386-.311-.481-.164-.094-.37-.118-.616-.071-.242.047-.423.144-.541.292-.118.148-.155.337-.112.567a.646.646 0 0 0 .313.455.874.874 0 0 0 .605.08.857.857 0 0 0 .533-.303.638.638 0 0 0 .129-.539Zm-.563 1.363c-.266.05-.472.159-.616.324-.141.161-.188.364-.141.611.044.23.16.402.349.517.189.111.422.139.701.086.275-.052.477-.166.607-.341a.734.734 0 0 0 .136-.604c-.046-.242-.165-.414-.356-.516-.187-.102-.413-.128-.68-.077Zm2.878.556c.324-.409.577-.742.758-.998a3.8 3.8 0 0 0 .435-.786c.104-.263.135-.511.09-.745-.046-.243-.141-.421-.284-.536-.139-.116-.332-.151-.578-.104-.239.046-.41.158-.514.337-.101.174-.131.389-.09.645l-.667.127c-.075-.463-.005-.84.212-1.133.219-.297.533-.484.941-.562.44-.084.806-.028 1.099.167.296.195.483.494.56.898a1.75 1.75 0 0 1-.064.884 3.43 3.43 0 0 1-.39.822c-.162.248-.374.542-.636.88l-.226.295 1.92-.366.109.575-2.944.561-.095-.503.364-.458Zm4.465-3.393c.254-.049.491-.037.71.034.222.071.41.202.564.395.158.191.266.439.323.741l.375 1.969-.685.13-.355-1.865c-.056-.299-.174-.513-.354-.642-.18-.133-.399-.175-.658-.126-.258.05-.449.17-.571.36-.12.186-.151.429-.094.728l.355 1.865-.691.132-.853-4.483.691-.131.291 1.532a1.2 1.2 0 0 1 .38-.411c.167-.111.358-.188.572-.228Zm2.302 1.331a1.903 1.903 0 0 1 .037-.93 1.57 1.57 0 0 1 1.213-1.078 1.44 1.44 0 0 1 .714.027c.217.063.399.16.545.291l-.092-.484.697-.133.635 3.338-.697.132-.094-.496c-.087.18-.222.341-.404.485a1.516 1.516 0 0 1-.66.289 1.515 1.515 0 0 1-.829-.068 1.641 1.641 0 0 1-.687-.51 1.977 1.977 0 0 1-.378-.863Zm2.734-.508a1.208 1.208 0 0 0-.259-.572.997.997 0 0 0-.444-.318.996.996 0 0 0-.522-.038.999.999 0 0 0-.471.228.998.998 0 0 0-.303.453c-.061.183-.07.39-.026.62.044.23.128.423.254.579.13.155.281.265.452.328a1.013 1.013 0 0 0 .993-.189.997.997 0 0 0 .296-.458 1.24 1.24 0 0 0 .03-.633Zm1.02-2.385-.12-.63 1.26-.241.84 4.416-.697.133-.72-3.786-.563.108Z" fill="#fff"/><path d="M95.731 105.522c.67 0 1.208.224 1.613.671.405.44.607 1.047.607 1.822v3.414h-1.78v-3.173c0-.391-.101-.695-.304-.911-.202-.217-.475-.325-.817-.325-.342 0-.614.108-.817.325-.202.216-.303.52-.303.911v3.173h-1.791v-7.75h1.79v2.692a1.91 1.91 0 0 1 .744-.618 2.372 2.372 0 0 1 1.058-.231Z" fill="url(#t)"/><path d="M104.705 108.413c0 .168-.011.342-.032.524h-4.053c.028.363.143.642.346.838.209.188.464.282.764.282.447 0 .758-.188.932-.565h1.907a2.584 2.584 0 0 1-.535 1.037 2.592 2.592 0 0 1-.953.722 3.07 3.07 0 0 1-1.288.262c-.572 0-1.082-.122-1.529-.366a2.612 2.612 0 0 1-1.047-1.048c-.252-.454-.377-.984-.377-1.592 0-.607.122-1.138.366-1.592.252-.453.6-.803 1.048-1.047.446-.244.96-.366 1.539-.366.566 0 1.068.118 1.508.356.44.237.782.576 1.027 1.016.251.439.377.953.377 1.539Zm-1.833-.471c0-.307-.105-.552-.314-.733a1.157 1.157 0 0 0-.786-.273c-.3 0-.555.088-.764.262-.203.175-.329.423-.377.744h2.241Z" fill="url(#u)"/><path d="M107.44 103.679v7.75h-1.791v-7.75h1.791Z" fill="url(#v)"/><path d="M110.529 103.679v7.75h-1.791v-7.75h1.791Z" fill="url(#w)"/><path d="M114.487 111.513a3.262 3.262 0 0 1-1.55-.366 2.737 2.737 0 0 1-1.079-1.048c-.258-.454-.387-.984-.387-1.592 0-.6.133-1.127.398-1.581a2.684 2.684 0 0 1 1.089-1.058 3.262 3.262 0 0 1 1.55-.366 3.26 3.26 0 0 1 1.55.366c.461.244.824.597 1.089 1.058.266.454.398.981.398 1.581 0 .601-.136 1.131-.408 1.592a2.696 2.696 0 0 1-1.1 1.048 3.26 3.26 0 0 1-1.55.366Zm0-1.55c.342 0 .632-.126.869-.377.245-.251.367-.611.367-1.079 0-.467-.119-.827-.356-1.078a1.115 1.115 0 0 0-.859-.377c-.349 0-.639.125-.869.377-.231.244-.346.604-.346 1.078 0 .468.112.828.335 1.079.231.251.517.377.859.377Z" fill="url(#x)"/><path d="M206.657 164.385c-.054-.709.023-1.272.23-1.688.211-.42.61-.652 1.196-.697.586-.044 1.014.125 1.282.509.272.379.435.923.489 1.632.055.717-.024 1.288-.235 1.712-.207.42-.603.652-1.19.697-.586.045-1.015-.125-1.287-.508-.269-.388-.431-.94-.485-1.657Zm2.508-.192a4.494 4.494 0 0 0-.131-.837 1.106 1.106 0 0 0-.301-.54c-.143-.137-.343-.196-.601-.176-.258.019-.447.108-.567.266a1.129 1.129 0 0 0-.222.579c-.024.233-.023.515.002.847.027.344.069.632.128.862a1.1 1.1 0 0 0 .301.546c.146.134.349.19.607.171.258-.02.447-.107.568-.26.124-.154.198-.349.221-.586a5.098 5.098 0 0 0-.005-.872Zm3.018.358 1.225 1.632-.793.06-.819-1.094-.601 1.203-.732.055.968-1.749-1.226-1.638.794-.061.819 1.094.601-1.202.731-.056-.967 1.756Zm1.385-.087a1.93 1.93 0 0 1 .14-.932c.123-.277.304-.497.543-.66.239-.162.521-.256.844-.281.41-.031.756.042 1.037.218.285.172.489.435.611.789l-.757.057a.8.8 0 0 0-.325-.371.87.87 0 0 0-.521-.102.853.853 0 0 0-.665.359c-.153.214-.215.503-.187.868.027.365.133.643.317.836a.86.86 0 0 0 .712.255c.405-.031.66-.23.764-.597l.757-.057c-.073.351-.236.64-.491.866-.255.221-.584.347-.985.378a1.707 1.707 0 0 1-.878-.15 1.58 1.58 0 0 1-.637-.57 1.977 1.977 0 0 1-.279-.906Zm3.8.477-.04-.529 1.84-3.12.849-.065.219 2.883.572-.043.046.609-.572.043.071.935-.688.052-.071-.934-2.226.169Zm2.045-2.951-1.286 2.281 1.451-.11-.165-2.171Zm4.241-.051a.737.737 0 0 0-.278-.405c-.126-.086-.296-.12-.509-.104-.324.025-.556.168-.697.431-.141.258-.194.674-.158 1.248.093-.188.238-.339.435-.453a1.52 1.52 0 0 1 .653-.198 1.4 1.4 0 0 1 .727.123c.217.099.392.255.524.468.135.212.215.472.238.779.022.287-.016.548-.113.782a1.257 1.257 0 0 1-.458.573 1.583 1.583 0 0 1-.784.251c-.423.032-.762-.035-1.017-.201-.252-.17-.441-.422-.565-.754-.12-.333-.199-.754-.238-1.262-.114-1.5.357-2.291 1.415-2.371.41-.032.74.055.99.258.255.203.415.465.481.786l-.646.049Zm-.663 1.12a.956.956 0 0 0-.622.277c-.161.16-.231.382-.209.665.021.283.119.502.291.658.177.151.41.216.701.194.259-.02.455-.115.591-.286.139-.172.199-.391.179-.657-.022-.279-.112-.494-.272-.647-.156-.157-.376-.225-.659-.204Zm2.838 2.221a.438.438 0 0 1-.329-.105.437.437 0 0 1-.154-.31.43.43 0 0 1 .105-.329.435.435 0 0 1 .31-.154.43.43 0 0 1 .323.105c.093.08.144.183.154.31a.442.442 0 0 1-.409.483Zm1.483-.113a.438.438 0 0 1-.329-.105.437.437 0 0 1-.154-.31.43.43 0 0 1 .105-.329.435.435 0 0 1 .31-.154.43.43 0 0 1 .323.105c.093.08.144.183.154.31a.442.442 0 0 1-.409.483Zm1.483-.113a.438.438 0 0 1-.329-.105.437.437 0 0 1-.154-.31.43.43 0 0 1 .105-.329.435.435 0 0 1 .31-.154.43.43 0 0 1 .323.105c.093.08.144.183.154.31a.442.442 0 0 1-.409.483Zm1.483-.113a.438.438 0 0 1-.329-.105.437.437 0 0 1-.154-.31.43.43 0 0 1 .105-.329.435.435 0 0 1 .31-.154.43.43 0 0 1 .323.105c.093.08.144.183.154.31a.442.442 0 0 1-.409.483Zm1.483-.113a.438.438 0 0 1-.329-.105.437.437 0 0 1-.154-.31.44.44 0 0 1 .415-.483.43.43 0 0 1 .323.105c.093.08.144.183.154.31a.442.442 0 0 1-.409.483Zm3.699-4.228-2.059.157.093 1.224a.983.983 0 0 1 .359-.318c.166-.091.346-.144.538-.159.345-.026.629.027.853.158.229.131.397.306.504.524.111.219.177.453.196.703.023.303-.016.578-.117.825a1.29 1.29 0 0 1-.48.593c-.22.153-.497.242-.833.268-.447.034-.814-.05-1.102-.25a1.35 1.35 0 0 1-.552-.843l.682-.052c.06.19.172.336.337.439a.989.989 0 0 0 .596.121c.291-.022.502-.127.632-.314.134-.187.19-.427.168-.718-.023-.295-.113-.515-.273-.659-.16-.149-.383-.212-.67-.19a.835.835 0 0 0-.498.192.842.842 0 0 0-.265.429l-.664.05-.197-2.588 2.706-.206.046.614Zm1.647 2.818c.368-.37.656-.672.865-.906.213-.239.386-.483.52-.733.133-.249.191-.492.173-.73-.019-.246-.093-.434-.222-.565-.126-.13-.314-.186-.564-.167-.241.019-.424.111-.547.277-.12.162-.174.372-.163.631l-.676.051c-.023-.468.089-.835.337-1.102.251-.27.584-.421.998-.453.447-.034.804.063 1.073.289.273.227.425.545.456.955.023.295-.031.586-.162.872a3.41 3.41 0 0 1-.479.772 13.86 13.86 0 0 1-.731.804l-.258.267 1.949-.148.045.584-2.988.228-.039-.511.413-.415Zm4.56.667a1.77 1.77 0 0 1-.73-.086 1.306 1.306 0 0 1-.528-.356.998.998 0 0 1-.239-.544l.725-.056c.023.143.1.259.231.348a.78.78 0 0 0 .484.105c.197-.015.346-.064.446-.145.105-.087.153-.189.144-.308-.01-.127-.078-.217-.206-.269a3.245 3.245 0 0 0-.587-.159 5.783 5.783 0 0 1-.637-.156 1.126 1.126 0 0 1-.441-.269c-.125-.127-.196-.301-.212-.522a.824.824 0 0 1 .122-.504c.095-.16.238-.29.428-.391a1.73 1.73 0 0 1 .679-.182c.385-.029.702.045.95.224.253.175.4.43.442.764l-.701.054a.5.5 0 0 0-.212-.349c-.117-.082-.27-.115-.459-.101-.184.014-.323.06-.416.137a.324.324 0 0 0-.127.288c.007.09.046.163.116.22.07.056.154.099.251.129.097.026.239.058.428.097.251.047.457.1.618.157.165.054.309.142.434.264a.788.788 0 0 1 .218.509.877.877 0 0 1-.12.529 1.06 1.06 0 0 1-.428.391 1.666 1.666 0 0 1-.673.181Zm3.541-3.788c.258-.02.492.018.701.113.213.095.386.247.517.456.135.208.215.465.238.773l.152 1.998-.694.053-.145-1.894c-.023-.303-.116-.529-.28-.677-.164-.152-.377-.219-.64-.199-.262.02-.465.118-.608.294-.139.171-.198.409-.175.712l.144 1.894-.7.053-.347-4.55.701-.053.119 1.556c.108-.153.249-.275.423-.367.179-.092.377-.146.594-.162Zm2.141-.095c-.004-.384.118-.692.369-.925.254-.234.59-.367 1.008-.399.287-.022.539.011.756.097.217.087.385.214.505.382s.189.363.205.585a1.051 1.051 0 0 1-.611 1.067l.002.024c.247.055.446.176.596.363.15.182.237.425.26.728a1.26 1.26 0 0 1-.117.658c-.096.197-.249.36-.458.487a1.76 1.76 0 0 1-.768.219c-.443.034-.817-.051-1.121-.255-.3-.208-.476-.524-.529-.949l.676-.051c.033.216.13.388.293.515.162.124.372.176.63.157.25-.02.437-.102.562-.247a.742.742 0 0 0 .163-.551c-.022-.287-.13-.483-.323-.587-.19-.11-.473-.15-.851-.121l-.159.012-.044-.578.166-.013c.331-.029.579-.103.743-.223.168-.12.244-.295.226-.524a.6.6 0 0 0-.226-.453c-.136-.109-.321-.155-.554-.137-.23.017-.404.09-.522.219a.699.699 0 0 0-.195.448l-.682.052Z" fill="#fff"/><path d="M203.168 188.116c.115-.702.322-1.23.622-1.585.304-.359.747-.49 1.327-.395.58.095.955.36 1.125.796.175.433.205 1 .091 1.702-.117.71-.327 1.246-.632 1.609-.301.359-.741.491-1.321.396-.58-.095-.957-.361-1.131-.798-.17-.44-.197-1.015-.081-1.725Zm2.483.407c.054-.329.077-.611.069-.845a1.092 1.092 0 0 0-.165-.596c-.105-.167-.286-.272-.542-.313-.255-.042-.46-.001-.614.124-.153.121-.27.291-.352.511-.078.22-.143.495-.197.823a5.217 5.217 0 0 0-.08.868c.003.238.058.439.164.602.111.164.294.267.55.309.255.042.46.002.613-.118.157-.12.274-.293.353-.517.078-.225.145-.508.201-.848Zm2.848 1.06.806 1.875-.785-.129-.538-1.256-.868 1.026-.724-.118 1.353-1.472-.805-1.881.785.128.538 1.257.868-1.027.724.119-1.354 1.478Zm1.367.242c.056-.344.174-.635.355-.872.185-.241.413-.412.683-.513.271-.102.567-.126.887-.074.406.067.725.219.956.457.237.235.373.538.408.91l-.749-.122a.81.81 0 0 0-.228-.438.877.877 0 0 0-.482-.222.856.856 0 0 0-.732.192c-.199.172-.327.438-.387.799-.059.361-.022.657.112.887a.856.856 0 0 0 .631.416c.402.066.697-.067.884-.399l.749.123a1.544 1.544 0 0 1-.681.725c-.301.155-.65.2-1.047.135a1.701 1.701 0 0 1-.817-.353 1.58 1.58 0 0 1-.485-.704 1.958 1.958 0 0 1-.057-.947Zm6.456-.716a.739.739 0 0 0-.175-.46c-.102-.113-.259-.186-.47-.221-.32-.052-.58.032-.778.254-.198.217-.348.609-.449 1.176a1.06 1.06 0 0 1 .53-.338c.219-.064.446-.077.681-.038.268.043.494.141.677.292.189.147.322.34.399.577.082.239.098.51.048.814a1.668 1.668 0 0 1-.294.733c-.146.205-.34.355-.58.449-.239.09-.513.109-.822.059-.418-.069-.731-.214-.941-.436-.204-.225-.328-.514-.37-.866-.039-.352-.016-.78.066-1.283.243-1.485.887-2.141 1.934-1.97.406.067.706.228.902.485.199.258.293.55.281.877l-.639-.104Zm-.908.932a.95.95 0 0 0-.67.121c-.194.118-.314.318-.36.597-.046.28-.003.516.128.709.135.189.347.307.635.354.256.042.47-.005.642-.139.175-.133.285-.332.328-.596.045-.276.008-.507-.111-.693-.115-.19-.312-.307-.592-.353Zm5.319-.716-2.33 3.624-.7-.115 2.336-3.547-2.251-.369.096-.59 2.933.48-.084.517Zm.32 4.102a.438.438 0 0 1-.296-.18.439.439 0 0 1-.076-.337.438.438 0 0 1 .18-.296.438.438 0 0 1 .337-.076c.122.02.218.08.289.179a.43.43 0 0 1 .076.337.435.435 0 0 1-.179.296.429.429 0 0 1-.331.077Zm1.467.24a.43.43 0 0 1-.295-.18.434.434 0 0 1-.076-.337.431.431 0 0 1 .179-.295.433.433 0 0 1 .338-.076c.121.02.218.079.289.178a.436.436 0 0 1 .076.338.433.433 0 0 1-.179.295.43.43 0 0 1-.332.077Zm1.468.241a.436.436 0 0 1-.295-.18.43.43 0 0 1-.076-.337.439.439 0 0 1 .516-.372.43.43 0 0 1 .29.179.434.434 0 0 1 .076.337.437.437 0 0 1-.18.296.428.428 0 0 1-.331.077Zm1.468.24a.437.437 0 0 1-.296-.18.438.438 0 0 1-.076-.337.436.436 0 0 1 .18-.295.43.43 0 0 1 .337-.076.44.44 0 0 1 .366.516.438.438 0 0 1-.18.295.428.428 0 0 1-.331.077Zm1.468.241a.438.438 0 0 1-.296-.18.439.439 0 0 1-.076-.337.438.438 0 0 1 .18-.296.438.438 0 0 1 .337-.076c.122.02.218.08.289.179a.43.43 0 0 1 .076.337.435.435 0 0 1-.179.296.429.429 0 0 1-.331.077Zm4.591-3.235-2.038-.334-.198 1.211a.983.983 0 0 1 .424-.224 1.32 1.32 0 0 1 .56-.027c.341.056.605.174.792.355.191.181.313.391.366.629.057.238.065.481.024.728a1.782 1.782 0 0 1-.308.775 1.287 1.287 0 0 1-.606.463c-.25.096-.54.117-.873.063-.442-.073-.779-.24-1.011-.503a1.346 1.346 0 0 1-.338-.949l.675.11a.778.778 0 0 0 .223.506c.137.134.32.221.552.259.288.047.517-.005.687-.156.175-.151.286-.37.333-.658.048-.292.011-.527-.11-.705-.12-.182-.322-.297-.606-.343a.836.836 0 0 0-.53.069.824.824 0 0 0-.357.354l-.658-.108.419-2.562 2.678.439-.1.608Zm3.341.991a.741.741 0 0 0-.174-.459c-.103-.113-.26-.186-.47-.221-.321-.053-.581.032-.779.254-.198.217-.348.609-.449 1.176.135-.162.312-.274.53-.338.219-.064.446-.077.681-.039.268.044.494.142.677.292.189.148.322.341.4.578.081.239.097.51.048.814a1.686 1.686 0 0 1-.295.733 1.248 1.248 0 0 1-.58.448c-.239.09-.513.11-.822.06-.417-.069-.731-.214-.941-.436-.204-.225-.328-.514-.37-.867-.038-.352-.016-.779.066-1.282.243-1.485.888-2.142 1.934-1.97.406.066.706.228.902.485.199.258.293.55.281.877l-.639-.105Zm-.908.933a.95.95 0 0 0-.67.121c-.194.118-.314.317-.36.597-.046.28-.003.516.128.708.136.189.347.307.635.354.256.042.47-.004.642-.138.176-.134.285-.332.328-.596.045-.276.008-.507-.111-.693-.115-.19-.312-.308-.592-.353Zm2.935-1a.44.44 0 0 1-.372-.517.438.438 0 0 1 .18-.296.439.439 0 0 1 .337-.076c.122.02.218.08.29.179a.438.438 0 0 1 .076.337.44.44 0 0 1-.511.373Zm.268.5-.548 3.353-.694-.114.548-3.353.694.114Zm1.57 3.756a1.766 1.766 0 0 1-.689-.257 1.3 1.3 0 0 1-.429-.47 1 1 0 0 1-.104-.585l.718.117a.508.508 0 0 0 .142.392.779.779 0 0 0 .446.217c.194.032.351.02.468-.036.122-.059.193-.147.212-.265.021-.126-.025-.229-.137-.31a3.218 3.218 0 0 0-.533-.293 5.762 5.762 0 0 1-.582-.302 1.13 1.13 0 0 1-.365-.366c-.091-.152-.119-.338-.083-.557a.817.817 0 0 1 .238-.461c.13-.133.299-.226.508-.279.212-.053.446-.058.702-.016.381.062.672.21.871.442.204.229.287.512.249.847l-.694-.114a.5.5 0 0 0-.124-.389c-.095-.107-.235-.176-.422-.206-.182-.03-.328-.019-.437.034a.328.328 0 0 0-.191.25c-.014.09.006.17.061.241a.727.727 0 0 0 .213.185c.088.048.219.113.393.196.233.105.421.204.564.298.147.091.267.211.36.359.092.149.123.331.092.547a.887.887 0 0 1-.242.485c-.13.133-.3.226-.508.279-.205.054-.437.06-.697.017Zm3.013-.8a.76.76 0 0 0 .186.506c.116.127.288.209.515.246.288.048.518-.031.689-.237.171-.205.301-.581.391-1.129a.97.97 0 0 1-.467.255 1.511 1.511 0 0 1-.59.016 1.654 1.654 0 0 1-.692-.276 1.256 1.256 0 0 1-.432-.565 1.571 1.571 0 0 1-.055-.809c.073-.446.26-.78.563-1.001.308-.224.691-.299 1.149-.224.552.091.913.339 1.084.746.175.404.201.985.077 1.744-.086.523-.2.944-.344 1.262-.139.318-.331.545-.574.681-.242.135-.554.171-.936.109-.434-.072-.75-.24-.948-.506a1.316 1.316 0 0 1-.255-.923l.639.105Zm.942-.908c.243.04.446-.004.608-.131.168-.131.272-.322.313-.574.046-.28.006-.509-.119-.688-.12-.182-.308-.294-.563-.336-.256-.042-.472.006-.649.144-.171.134-.279.331-.321.591a.91.91 0 0 0 .112.649c.12.182.327.297.619.345Z" fill="#F6C723"/></g><defs><linearGradient id="c" x1="72.21" y1="187.107" x2="1417.1" y2="125.819" gradientUnits="userSpaceOnUse"><stop stop-color="#E27469"/><stop offset="1" stop-color="#D74634"/></linearGradient><linearGradient id="d" x1="-122.184" y1="206.786" x2="322.255" y2="202.27" gradientUnits="userSpaceOnUse"><stop stop-color="#E27469"/><stop offset="1" stop-color="#D74634"/></linearGradient><linearGradient id="e" x1="72.841" y1="117.606" x2="225.487" y2="113.496" gradientUnits="userSpaceOnUse"><stop stop-color="#E27469"/><stop offset="1" stop-color="#D74634"/></linearGradient><linearGradient id="f" x1="68.429" y1="199.495" x2="146.095" y2="198.827" gradientUnits="userSpaceOnUse"><stop stop-color="#E27469"/><stop offset="1" stop-color="#D74634"/></linearGradient><linearGradient id="g" x1="153.671" y1="199.494" x2="231.334" y2="198.827" gradientUnits="userSpaceOnUse"><stop stop-color="#E27469"/><stop offset="1" stop-color="#D74634"/></linearGradient><linearGradient id="h" x1="72.491" y1="218.683" x2="225.805" y2="214.227" gradientUnits="userSpaceOnUse"><stop stop-color="#E27469"/><stop offset="1" stop-color="#D74634"/></linearGradient><linearGradient id="i" x1="37.798" y1="106.573" x2="91.761" y2="105.938" gradientUnits="userSpaceOnUse"><stop stop-color="#B93C30"/><stop offset="1" stop-color="#D74634"/></linearGradient><linearGradient id="j" x1="19.469" y1="91.646" x2="90.475" y2="89.382" gradientUnits="userSpaceOnUse"><stop stop-color="#ED5243"/><stop offset="1" stop-color="#D74634"/></linearGradient><linearGradient id="k" x1="36.668" y1="119.483" x2="61.278" y2="119.188" gradientUnits="userSpaceOnUse"><stop stop-color="#E27469"/><stop offset="1" stop-color="#D74634"/></linearGradient><linearGradient id="l" x1="44.364" y1="102.636" x2="92.195" y2="102.06" gradientUnits="userSpaceOnUse"><stop stop-color="#ED5243"/><stop offset="1" stop-color="#D74634"/></linearGradient><linearGradient id="m" x1="182.481" y1="146.34" x2="253.281" y2="124.452" gradientUnits="userSpaceOnUse"><stop stop-color="#F5841F"/><stop offset="1" stop-color="#CC6228"/></linearGradient><linearGradient id="n" x1="252.504" y1="178.766" x2="289.213" y2="178.393" gradientUnits="userSpaceOnUse"><stop stop-color="#E27469"/><stop offset="1" stop-color="#D74634"/></linearGradient><linearGradient id="o" x1="205.346" y1="66.47" x2="214.838" y2="66.369" gradientUnits="userSpaceOnUse"><stop stop-color="#E27469"/><stop offset="1" stop-color="#D74634"/></linearGradient><linearGradient id="p" x1="23.608" y1="236.277" x2="34.155" y2="236.17" gradientUnits="userSpaceOnUse"><stop stop-color="#E27469"/><stop offset="1" stop-color="#D74634"/></linearGradient><linearGradient id="q" x1="27.27" y1="237.804" x2="31.03" y2="233.967" gradientUnits="userSpaceOnUse"><stop stop-color="#E27469"/><stop offset="1" stop-color="#D74634"/></linearGradient><linearGradient id="r" x1="149.17" y1="268.655" x2="154.018" y2="268.605" gradientUnits="userSpaceOnUse"><stop stop-color="#E27469"/><stop offset="1" stop-color="#D74634"/></linearGradient><linearGradient id="s" x1="103.904" y1="52.02" x2="108.752" y2="51.97" gradientUnits="userSpaceOnUse"><stop stop-color="#E27469"/><stop offset="1" stop-color="#D74634"/></linearGradient><linearGradient id="t" x1="93.349" y1="108.016" x2="115.91" y2="107.272" gradientUnits="userSpaceOnUse"><stop stop-color="#E27469"/><stop offset="1" stop-color="#D74634"/></linearGradient><linearGradient id="u" x1="93.349" y1="108.016" x2="115.91" y2="107.272" gradientUnits="userSpaceOnUse"><stop stop-color="#E27469"/><stop offset="1" stop-color="#D74634"/></linearGradient><linearGradient id="v" x1="93.349" y1="108.016" x2="115.91" y2="107.272" gradientUnits="userSpaceOnUse"><stop stop-color="#E27469"/><stop offset="1" stop-color="#D74634"/></linearGradient><linearGradient id="w" x1="93.349" y1="108.016" x2="115.91" y2="107.272" gradientUnits="userSpaceOnUse"><stop stop-color="#E27469"/><stop offset="1" stop-color="#D74634"/></linearGradient><linearGradient id="x" x1="93.349" y1="108.016" x2="115.91" y2="107.272" gradientUnits="userSpaceOnUse"><stop stop-color="#E27469"/><stop offset="1" stop-color="#D74634"/></linearGradient><clipPath id="a"><path fill="#fff" d="M0 0h1516v338H0z"/></clipPath><filter id="b" x="-100" y="-100" width="1716" height="538" filterUnits="userSpaceOnUse" color-interpolation-filters="sRGB"><feFlood flood-opacity="0" result="BackgroundImageFix"/><feBlend in="SourceGraphic" in2="BackgroundImageFix" result="shape"/><feGaussianBlur stdDeviation="50" result="effect1_foregroundBlur_588_2304"/></filter></defs></svg>