<svg  viewBox="0 0 437 67" fill="none" xmlns="http://www.w3.org/2000/svg"><path d="M212.189.862c-27.258-3.315-80.355 3.132-130.698 15.866l-11.883 3.01c-33.405 8.476-51.45 14.385-64.23 21.034C.392 43.367-.044 43.713.004 45.04c.074 1.936.868 1.788 10.054-1.876 9.506-3.792 17.97-6.254 41.124-11.958C128.565 12.14 164.51 6.567 204.405 7.45c7.818.173 20.171 2.706 20.087 4.12-.112 1.886-8.251 6.875-26.982 16.536-23.044 11.884-37.125 19.994-38.457 22.148-2.277 3.682-.212 7.03 4.654 7.552 2.781.298 3.419.25 16.339-1.244 37.095-4.285 60.717-5.565 92.593-5.014 48.544.839 79.344 3.557 137.046 12.098 20.734 3.07 21.81 3.159 25.732 2.125l.069-.018c1.259-.324 1.604-2.911.418-3.725-3.05-2.09-5.127-2.558-23.103-5.202-60.26-8.863-92.075-11.74-138.377-12.51-24.351-.405-35.226-.185-53.05 1.076-12.185.861-44.398 3.978-48.93 4.733-2.472.413 8.522-5.783 27.772-15.65 24.351-12.482 29.271-16.19 29.659-22.34.437-6.937-3.698-9.572-17.686-11.273Z" fill="#585C67"/></svg>