<svg width="36" height="36" viewBox="0 0 36 36" fill="none" xmlns="http://www.w3.org/2000/svg">
<path fill-rule="evenodd" clip-rule="evenodd" d="M14.1435 13.4535H19.7145V16.2285C20.517 14.6325 22.575 13.1985 25.6665 13.1985C31.593 13.1985 33 16.3755 33 22.2045V33H27V23.532C27 20.2125 26.1975 18.3405 24.1545 18.3405C21.321 18.3405 20.1435 20.358 20.1435 23.5305V33H14.1435V13.4535ZM3.855 32.745H9.855V13.1985H3.855V32.745ZM10.7145 6.825C10.7147 7.32791 10.615 7.82585 10.4211 8.28988C10.2272 8.75391 9.94298 9.17477 9.585 9.528C8.8596 10.2489 7.87772 10.6525 6.855 10.65C5.83408 10.6493 4.85447 10.2468 4.128 9.5295C3.77132 9.17507 3.48808 8.75374 3.29452 8.28965C3.10095 7.82556 3.00087 7.32784 3 6.825C3 5.8095 3.405 4.8375 4.1295 4.1205C4.85533 3.40224 5.83536 2.99955 6.8565 3C7.8795 3 8.8605 3.4035 9.585 4.1205C10.308 4.8375 10.7145 5.8095 10.7145 6.825Z" fill="url(#paint0_linear_1_180)"/>
<defs>
<linearGradient id="paint0_linear_1_180" x1="4.42895" y1="19.6072" x2="31.0953" y2="19.3362" gradientUnits="userSpaceOnUse">
<stop stop-color="#E27469"/>
<stop offset="1" stop-color="#D74634"/>
</linearGradient>
</defs>
</svg>
