<svg width="64" height="64" viewBox="0 0 32 32" fill="none" xmlns="http://www.w3.org/2000/svg"><path d="M14.7485 5.08814C15.2876 4.80395 16.1078 4.80395 16.6468 5.08814L22.1474 7.98798C22.472 8.15912 22.6503 8.41416 22.6822 8.67744H22.6875V23.2534C22.6803 23.5406 22.5004 23.8259 22.1474 24.012L16.6468 26.9119C16.1078 27.196 15.2876 27.196 14.7485 26.9119L9.24801 24.012C8.89648 23.8267 8.72778 23.5394 8.71943 23.2534C8.71857 23.2241 8.71849 23.1999 8.7194 23.18L8.71943 8.77558C8.71861 8.75532 8.7186 8.73514 8.71941 8.71506L8.71943 8.67744H8.72188C8.74631 8.41125 8.91652 8.16273 9.24801 7.98798L14.7485 5.08814ZM21.8125 16.7812L16.6452 19.5144C16.1069 19.7991 15.2879 19.7991 14.7496 19.5144L9.59375 16.7873V23.2084L14.7496 25.921C15.0543 26.084 15.3711 26.2428 15.6796 26.2498L15.6974 26.25C16.0053 26.251 16.3042 26.0945 16.6073 25.9462L21.8125 23.185V16.7812ZM7.85699 22.9375C7.85699 23.4963 7.92136 23.8635 8.04916 24.1223C8.15509 24.3367 8.31402 24.5006 8.60423 24.7L8.62079 24.7113C8.68448 24.7547 8.75464 24.8001 8.84004 24.8534L8.94075 24.9156L9.25 25.1039L8.80645 25.8438L8.46031 25.6328L8.40213 25.5968C8.30205 25.5344 8.2191 25.4809 8.14173 25.4283C7.31464 24.8657 7.00618 24.2523 7.00009 22.9764L7 22.9375H7.85699ZM15.2812 12.9062C15.2412 12.92 15.2037 12.936 15.1695 12.9541L9.67739 15.8632C9.67163 15.8663 9.66613 15.8693 9.6609 15.8723L9.65625 15.875L9.66487 15.88L9.67739 15.8868L15.1695 18.7959C15.2037 18.814 15.2412 18.83 15.2812 18.8438V12.9062ZM16.1562 12.9062V18.8438C16.1963 18.83 16.2338 18.814 16.268 18.7959L21.7601 15.8868C21.7659 15.8837 21.7714 15.8807 21.7766 15.8777L21.7812 15.875L21.7726 15.87L21.7601 15.8632L16.268 12.9541C16.2338 12.936 16.1963 12.92 16.1562 12.9062ZM21.8125 9.71875L16.875 12.3125L21.8125 14.9062V9.71875ZM9.59375 9.71875V14.9062L14.5312 12.3125L9.59375 9.71875ZM16.2632 5.86335C15.9773 5.71222 15.4602 5.71222 15.1743 5.86335L9.67741 8.76949C9.67164 8.77255 9.66614 8.77556 9.6609 8.77856L9.65625 8.78125L9.66488 8.78619L9.67741 8.793L15.1743 11.6991C15.4602 11.8503 15.9773 11.8503 16.2632 11.6991L21.7601 8.793C21.7658 8.78994 21.7714 8.78694 21.7766 8.78396L21.7812 8.78125L21.7726 8.77631L21.7601 8.76949L16.2632 5.86335ZM22.6311 6.15625L22.9772 6.36716L23.0354 6.4032C23.1354 6.46553 23.2184 6.51908 23.2958 6.57171C24.1229 7.1343 24.4313 7.74766 24.4374 9.02363L24.4375 9.0625H23.5805C23.5805 8.5037 23.5161 8.13647 23.3883 7.87771C23.2824 7.66328 23.1235 7.49939 22.8333 7.29998L22.8167 7.28865C22.753 7.24533 22.6829 7.19994 22.5975 7.14661L22.4968 7.08438L22.1875 6.89609L22.6311 6.15625Z" fill="currentColor"></path></svg>